<svg width="356" height="135" viewBox="0 0 356 135" fill="none" xmlns="http://www.w3.org/2000/svg">
<g filter="url(#filter0_d_1337_3306)">
<path d="M55.7871 4.45922L18.8531 59.9501C16.5369 63.4301 16.6297 67.9836 19.0859 71.3663L55.7603 121.875C57.6417 124.467 60.6501 126 63.8522 126H340C345.523 126 350 121.523 350 116V10C350 4.47715 345.523 0 340 0H64.1118C60.7656 0 57.6412 1.67365 55.7871 4.45922Z" fill="url(#paint0_linear_1337_3306)"/>
<path d="M64.8797 18.7161L32.3027 59.0444C29.2399 62.8358 29.3567 68.283 32.5791 71.9397L64.8956 108.612C66.794 110.766 69.5268 112 72.3981 112H330C335.523 112 340 107.523 340 102V25C340 19.4772 335.523 15 330 15H72.6588C69.6375 15 66.7783 16.3659 64.8797 18.7161Z" fill="white"/>
<path d="M198.63 38.6V53H197.44C197.26 53 197.107 52.97 196.98 52.91C196.853 52.8433 196.733 52.7367 196.62 52.59L188.71 42.43C188.73 42.6233 188.743 42.8167 188.75 43.01C188.763 43.1967 188.77 43.37 188.77 43.53V53H186.71V38.6H187.93C188.03 38.6 188.113 38.6067 188.18 38.62C188.253 38.6267 188.32 38.6433 188.38 38.67C188.44 38.6967 188.497 38.7367 188.55 38.79C188.603 38.8433 188.66 38.91 188.72 38.99L196.64 49.16C196.62 48.9533 196.603 48.75 196.59 48.55C196.583 48.35 196.58 48.1633 196.58 47.99V38.6H198.63ZM205.759 42.64C206.512 42.64 207.192 42.7633 207.799 43.01C208.412 43.2567 208.932 43.6067 209.359 44.06C209.792 44.5133 210.126 45.0633 210.359 45.71C210.592 46.3567 210.709 47.0833 210.709 47.89C210.709 48.6967 210.592 49.4233 210.359 50.07C210.126 50.7167 209.792 51.27 209.359 51.73C208.932 52.1833 208.412 52.5333 207.799 52.78C207.192 53.0267 206.512 53.15 205.759 53.15C204.999 53.15 204.312 53.0267 203.699 52.78C203.092 52.5333 202.572 52.1833 202.139 51.73C201.706 51.27 201.372 50.7167 201.139 50.07C200.906 49.4233 200.789 48.6967 200.789 47.89C200.789 47.0833 200.906 46.3567 201.139 45.71C201.372 45.0633 201.706 44.5133 202.139 44.06C202.572 43.6067 203.092 43.2567 203.699 43.01C204.312 42.7633 204.999 42.64 205.759 42.64ZM205.759 51.47C206.679 51.47 207.362 51.1633 207.809 50.55C208.262 49.93 208.489 49.0467 208.489 47.9C208.489 46.7533 208.262 45.87 207.809 45.25C207.362 44.6233 206.679 44.31 205.759 44.31C204.826 44.31 204.132 44.6233 203.679 45.25C203.226 45.87 202.999 46.7533 202.999 47.9C202.999 49.0467 203.226 49.93 203.679 50.55C204.132 51.1633 204.826 51.47 205.759 51.47ZM222.335 45.5C222.869 45.5 223.335 45.4367 223.735 45.31C224.135 45.1767 224.469 44.9933 224.735 44.76C225.002 44.5267 225.202 44.25 225.335 43.93C225.469 43.6033 225.535 43.2433 225.535 42.85C225.535 42.0633 225.275 41.4633 224.755 41.05C224.235 40.6367 223.449 40.43 222.395 40.43H220.495V45.5H222.335ZM229.115 53H227.025C226.612 53 226.312 52.84 226.125 52.52L222.765 47.67C222.652 47.5033 222.529 47.3833 222.395 47.31C222.262 47.2367 222.062 47.2 221.795 47.2H220.495V53H218.155V38.6H222.395C223.342 38.6 224.155 38.6967 224.835 38.89C225.522 39.0833 226.085 39.36 226.525 39.72C226.965 40.0733 227.289 40.5 227.495 41C227.709 41.5 227.815 42.0567 227.815 42.67C227.815 43.17 227.739 43.6367 227.585 44.07C227.439 44.5033 227.222 44.8967 226.935 45.25C226.655 45.6033 226.309 45.91 225.895 46.17C225.482 46.43 225.012 46.6333 224.485 46.78C224.772 46.9533 225.019 47.1967 225.225 47.51L229.115 53ZM236.477 46.75C236.477 46.39 236.423 46.0567 236.317 45.75C236.217 45.4367 236.067 45.1667 235.867 44.94C235.667 44.7067 235.417 44.5267 235.117 44.4C234.823 44.2667 234.483 44.2 234.097 44.2C233.317 44.2 232.703 44.4233 232.257 44.87C231.81 45.3167 231.527 45.9433 231.407 46.75H236.477ZM231.347 48.07C231.373 48.65 231.463 49.1533 231.617 49.58C231.77 50 231.973 50.35 232.227 50.63C232.487 50.91 232.793 51.12 233.147 51.26C233.507 51.3933 233.907 51.46 234.347 51.46C234.767 51.46 235.13 51.4133 235.437 51.32C235.743 51.22 236.01 51.1133 236.237 51C236.463 50.88 236.657 50.7733 236.817 50.68C236.977 50.58 237.123 50.53 237.257 50.53C237.43 50.53 237.563 50.5967 237.657 50.73L238.267 51.52C238.013 51.82 237.727 52.0733 237.407 52.28C237.087 52.4867 236.747 52.6567 236.387 52.79C236.027 52.9167 235.657 53.0067 235.277 53.06C234.897 53.12 234.527 53.15 234.167 53.15C233.46 53.15 232.803 53.0333 232.197 52.8C231.597 52.56 231.073 52.21 230.627 51.75C230.187 51.29 229.84 50.72 229.587 50.04C229.34 49.36 229.217 48.5767 229.217 47.69C229.217 46.9833 229.327 46.3233 229.547 45.71C229.773 45.0967 230.093 44.5633 230.507 44.11C230.927 43.6567 231.433 43.3 232.027 43.04C232.627 42.7733 233.303 42.64 234.057 42.64C234.683 42.64 235.263 42.7433 235.797 42.95C236.33 43.15 236.79 43.4467 237.177 43.84C237.563 44.2333 237.863 44.7167 238.077 45.29C238.297 45.8567 238.407 46.5033 238.407 47.23C238.407 47.5633 238.37 47.7867 238.297 47.9C238.223 48.0133 238.09 48.07 237.897 48.07H231.347ZM257.582 45.91V51.61C256.149 52.6433 254.482 53.16 252.582 53.16C251.415 53.16 250.359 52.98 249.412 52.62C248.472 52.2533 247.669 51.7467 247.002 51.1C246.335 50.4467 245.822 49.67 245.462 48.77C245.102 47.87 244.922 46.88 244.922 45.8C244.922 44.7133 245.095 43.72 245.442 42.82C245.789 41.9133 246.285 41.1367 246.932 40.49C247.579 39.8367 248.359 39.3333 249.272 38.98C250.185 38.62 251.212 38.44 252.352 38.44C252.932 38.44 253.469 38.4867 253.962 38.58C254.462 38.6667 254.925 38.79 255.352 38.95C255.779 39.11 256.172 39.3033 256.532 39.53C256.892 39.7567 257.222 40.01 257.522 40.29L256.852 41.36C256.745 41.5267 256.609 41.63 256.442 41.67C256.275 41.71 256.095 41.67 255.902 41.55C255.709 41.4367 255.502 41.3167 255.282 41.19C255.069 41.0633 254.822 40.9467 254.542 40.84C254.262 40.7267 253.939 40.6367 253.572 40.57C253.205 40.4967 252.772 40.46 252.272 40.46C251.512 40.46 250.825 40.5867 250.212 40.84C249.605 41.0867 249.085 41.4433 248.652 41.91C248.219 42.37 247.885 42.93 247.652 43.59C247.419 44.25 247.302 44.9867 247.302 45.8C247.302 46.66 247.425 47.43 247.672 48.11C247.919 48.7833 248.269 49.3567 248.722 49.83C249.175 50.2967 249.722 50.6533 250.362 50.9C251.009 51.1467 251.729 51.27 252.522 51.27C253.115 51.27 253.642 51.2067 254.102 51.08C254.569 50.9533 255.025 50.7767 255.472 50.55V47.69H253.462C253.309 47.69 253.189 47.65 253.102 47.57C253.015 47.4833 252.972 47.3733 252.972 47.24V45.91H257.582ZM261.817 44.69C262.137 44.0433 262.523 43.5367 262.977 43.17C263.43 42.7967 263.973 42.61 264.607 42.61C264.827 42.61 265.033 42.6367 265.227 42.69C265.42 42.7367 265.593 42.81 265.747 42.91L265.597 44.53C265.57 44.6433 265.527 44.7233 265.467 44.77C265.413 44.81 265.34 44.83 265.247 44.83C265.147 44.83 265.003 44.8133 264.817 44.78C264.63 44.74 264.433 44.72 264.227 44.72C263.927 44.72 263.66 44.7633 263.427 44.85C263.2 44.9367 262.993 45.0633 262.807 45.23C262.627 45.3967 262.467 45.6 262.327 45.84C262.187 46.08 262.057 46.3533 261.937 46.66V53H259.787V42.8H261.037C261.263 42.8 261.42 42.8433 261.507 42.93C261.593 43.01 261.653 43.1533 261.687 43.36L261.817 44.69ZM273.508 46.75C273.508 46.39 273.454 46.0567 273.348 45.75C273.248 45.4367 273.098 45.1667 272.898 44.94C272.698 44.7067 272.448 44.5267 272.148 44.4C271.854 44.2667 271.514 44.2 271.128 44.2C270.348 44.2 269.734 44.4233 269.288 44.87C268.841 45.3167 268.558 45.9433 268.438 46.75H273.508ZM268.378 48.07C268.404 48.65 268.494 49.1533 268.648 49.58C268.801 50 269.004 50.35 269.258 50.63C269.518 50.91 269.824 51.12 270.178 51.26C270.538 51.3933 270.938 51.46 271.378 51.46C271.798 51.46 272.161 51.4133 272.468 51.32C272.774 51.22 273.041 51.1133 273.268 51C273.494 50.88 273.688 50.7733 273.848 50.68C274.008 50.58 274.154 50.53 274.288 50.53C274.461 50.53 274.594 50.5967 274.688 50.73L275.298 51.52C275.044 51.82 274.758 52.0733 274.438 52.28C274.118 52.4867 273.778 52.6567 273.418 52.79C273.058 52.9167 272.688 53.0067 272.308 53.06C271.928 53.12 271.558 53.15 271.198 53.15C270.491 53.15 269.834 53.0333 269.228 52.8C268.628 52.56 268.104 52.21 267.658 51.75C267.218 51.29 266.871 50.72 266.618 50.04C266.371 49.36 266.248 48.5767 266.248 47.69C266.248 46.9833 266.358 46.3233 266.578 45.71C266.804 45.0967 267.124 44.5633 267.538 44.11C267.958 43.6567 268.464 43.3 269.058 43.04C269.658 42.7733 270.334 42.64 271.088 42.64C271.714 42.64 272.294 42.7433 272.828 42.95C273.361 43.15 273.821 43.4467 274.208 43.84C274.594 44.2333 274.894 44.7167 275.108 45.29C275.328 45.8567 275.438 46.5033 275.438 47.23C275.438 47.5633 275.401 47.7867 275.328 47.9C275.254 48.0133 275.121 48.07 274.928 48.07H268.378ZM282.893 48.54C282.126 48.5667 281.479 48.63 280.953 48.73C280.426 48.8233 279.999 48.9467 279.673 49.1C279.346 49.2467 279.109 49.4233 278.963 49.63C278.823 49.8367 278.753 50.0633 278.753 50.31C278.753 50.55 278.789 50.7567 278.863 50.93C278.943 51.0967 279.049 51.2367 279.183 51.35C279.323 51.4567 279.483 51.5367 279.663 51.59C279.849 51.6367 280.053 51.66 280.273 51.66C280.833 51.66 281.313 51.5567 281.713 51.35C282.119 51.1367 282.513 50.83 282.893 50.43V48.54ZM277.193 44.22C278.346 43.1467 279.719 42.61 281.313 42.61C281.899 42.61 282.419 42.7067 282.873 42.9C283.333 43.0867 283.716 43.3533 284.023 43.7C284.336 44.0467 284.573 44.46 284.733 44.94C284.899 45.4133 284.983 45.94 284.983 46.52V53H284.023C283.816 53 283.659 52.97 283.553 52.91C283.446 52.8433 283.356 52.7133 283.283 52.52L283.073 51.69C282.813 51.9233 282.556 52.1333 282.303 52.32C282.049 52.5 281.786 52.6533 281.513 52.78C281.246 52.9067 280.956 53 280.643 53.06C280.336 53.1267 279.996 53.16 279.623 53.16C279.209 53.16 278.823 53.1033 278.463 52.99C278.109 52.8767 277.803 52.7067 277.543 52.48C277.283 52.2467 277.076 51.96 276.923 51.62C276.776 51.28 276.703 50.88 276.703 50.42C276.703 50.0267 276.806 49.6433 277.013 49.27C277.226 48.8967 277.573 48.5633 278.053 48.27C278.539 47.97 279.176 47.7233 279.963 47.53C280.756 47.3367 281.733 47.2267 282.893 47.2V46.52C282.893 45.7867 282.736 45.24 282.423 44.88C282.109 44.52 281.649 44.34 281.043 44.34C280.629 44.34 280.283 44.3933 280.003 44.5C279.723 44.6 279.479 44.71 279.273 44.83C279.066 44.95 278.883 45.0633 278.723 45.17C278.563 45.27 278.393 45.32 278.213 45.32C278.066 45.32 277.939 45.2833 277.833 45.21C277.733 45.13 277.649 45.0333 277.583 44.92L277.193 44.22ZM293.591 44.65C293.538 44.7433 293.478 44.81 293.411 44.85C293.345 44.89 293.261 44.91 293.161 44.91C293.048 44.91 292.925 44.8767 292.791 44.81C292.658 44.7367 292.501 44.6567 292.321 44.57C292.141 44.4833 291.928 44.4067 291.681 44.34C291.441 44.2667 291.158 44.23 290.831 44.23C290.565 44.23 290.321 44.2633 290.101 44.33C289.888 44.39 289.705 44.48 289.551 44.6C289.405 44.7133 289.291 44.85 289.211 45.01C289.131 45.1633 289.091 45.33 289.091 45.51C289.091 45.75 289.165 45.95 289.311 46.11C289.458 46.27 289.651 46.41 289.891 46.53C290.131 46.6433 290.405 46.7467 290.711 46.84C291.018 46.9333 291.331 47.0333 291.651 47.14C291.971 47.2467 292.285 47.37 292.591 47.51C292.898 47.65 293.171 47.8233 293.411 48.03C293.651 48.23 293.845 48.4767 293.991 48.77C294.138 49.0567 294.211 49.4067 294.211 49.82C294.211 50.3 294.125 50.7433 293.951 51.15C293.778 51.5567 293.525 51.91 293.191 52.21C292.858 52.51 292.441 52.7433 291.941 52.91C291.448 53.0767 290.881 53.16 290.241 53.16C289.888 53.16 289.545 53.1267 289.211 53.06C288.885 53 288.571 52.9167 288.271 52.81C287.978 52.6967 287.701 52.5633 287.441 52.41C287.188 52.2567 286.961 52.09 286.761 51.91L287.261 51.09C287.321 50.99 287.395 50.9133 287.481 50.86C287.575 50.8 287.688 50.77 287.821 50.77C287.961 50.77 288.098 50.8167 288.231 50.91C288.371 50.9967 288.531 51.0933 288.711 51.2C288.898 51.3067 289.121 51.4067 289.381 51.5C289.641 51.5867 289.965 51.63 290.351 51.63C290.671 51.63 290.948 51.5933 291.181 51.52C291.415 51.44 291.608 51.3333 291.761 51.2C291.915 51.0667 292.028 50.9167 292.101 50.75C292.175 50.5767 292.211 50.3933 292.211 50.2C292.211 49.94 292.138 49.7267 291.991 49.56C291.845 49.3933 291.648 49.25 291.401 49.13C291.161 49.01 290.885 48.9033 290.571 48.81C290.265 48.7167 289.951 48.6167 289.631 48.51C289.311 48.4033 288.995 48.28 288.681 48.14C288.375 48 288.098 47.8233 287.851 47.61C287.611 47.39 287.418 47.1267 287.271 46.82C287.125 46.5067 287.051 46.1267 287.051 45.68C287.051 45.2733 287.131 44.8867 287.291 44.52C287.458 44.1533 287.698 43.83 288.011 43.55C288.331 43.27 288.721 43.05 289.181 42.89C289.648 42.7233 290.185 42.64 290.791 42.64C291.478 42.64 292.101 42.75 292.661 42.97C293.221 43.19 293.691 43.49 294.071 43.87L293.591 44.65ZM298.472 42.8V53H296.322V42.8H298.472ZM298.832 39.72C298.832 39.9133 298.792 40.0967 298.712 40.27C298.639 40.4433 298.535 40.5967 298.402 40.73C298.269 40.8567 298.112 40.96 297.932 41.04C297.759 41.1133 297.572 41.15 297.372 41.15C297.179 41.15 296.995 41.1133 296.822 41.04C296.655 40.96 296.509 40.8567 296.382 40.73C296.255 40.5967 296.152 40.4433 296.072 40.27C295.999 40.0967 295.962 39.9133 295.962 39.72C295.962 39.52 295.999 39.3333 296.072 39.16C296.152 38.9867 296.255 38.8367 296.382 38.71C296.509 38.5767 296.655 38.4733 296.822 38.4C296.995 38.32 297.179 38.28 297.372 38.28C297.572 38.28 297.759 38.32 297.932 38.4C298.112 38.4733 298.269 38.5767 298.402 38.71C298.535 38.8367 298.639 38.9867 298.712 39.16C298.792 39.3333 298.832 39.52 298.832 39.72ZM303.183 44.15C303.403 43.9233 303.63 43.72 303.863 43.54C304.103 43.3533 304.357 43.1933 304.623 43.06C304.89 42.9267 305.173 42.8233 305.473 42.75C305.773 42.6767 306.1 42.64 306.453 42.64C307.013 42.64 307.503 42.7333 307.923 42.92C308.35 43.1067 308.707 43.37 308.993 43.71C309.287 44.05 309.507 44.46 309.653 44.94C309.8 45.4133 309.873 45.9367 309.873 46.51V53H307.733V46.51C307.733 45.8233 307.573 45.29 307.253 44.91C306.94 44.53 306.46 44.34 305.813 44.34C305.333 44.34 304.887 44.45 304.473 44.67C304.067 44.89 303.683 45.19 303.323 45.57V53H301.173V42.8H302.473C302.767 42.8 302.953 42.9367 303.033 43.21L303.183 44.15ZM316.024 47.81C316.691 47.81 317.191 47.64 317.524 47.3C317.858 46.96 318.024 46.5167 318.024 45.97C318.024 45.41 317.858 44.9667 317.524 44.64C317.191 44.3133 316.691 44.15 316.024 44.15C315.364 44.15 314.864 44.3133 314.524 44.64C314.191 44.9667 314.024 45.41 314.024 45.97C314.024 46.2367 314.068 46.4833 314.154 46.71C314.241 46.9367 314.368 47.1333 314.534 47.3C314.701 47.46 314.908 47.5867 315.154 47.68C315.408 47.7667 315.698 47.81 316.024 47.81ZM319.014 53.5C319.014 53.2733 318.948 53.0933 318.814 52.96C318.688 52.82 318.514 52.7133 318.294 52.64C318.074 52.56 317.818 52.5033 317.524 52.47C317.231 52.43 316.918 52.4033 316.584 52.39C316.258 52.37 315.921 52.3533 315.574 52.34C315.234 52.32 314.904 52.2867 314.584 52.24C314.264 52.4067 314.001 52.6067 313.794 52.84C313.594 53.0733 313.494 53.3433 313.494 53.65C313.494 53.85 313.544 54.0367 313.644 54.21C313.751 54.3833 313.911 54.5333 314.124 54.66C314.344 54.7867 314.621 54.8867 314.954 54.96C315.294 55.0333 315.701 55.07 316.174 55.07C317.121 55.07 317.831 54.9233 318.304 54.63C318.778 54.3367 319.014 53.96 319.014 53.5ZM321.174 43.17V43.97C321.174 44.2367 321.014 44.4 320.694 44.46L319.674 44.63C319.848 45.0167 319.934 45.4467 319.934 45.92C319.934 46.42 319.834 46.8733 319.634 47.28C319.441 47.6867 319.171 48.0333 318.824 48.32C318.478 48.6067 318.064 48.8267 317.584 48.98C317.104 49.1333 316.584 49.21 316.024 49.21C315.811 49.21 315.601 49.2 315.394 49.18C315.194 49.1533 314.998 49.12 314.804 49.08C314.611 49.1933 314.468 49.3133 314.374 49.44C314.281 49.5667 314.234 49.6967 314.234 49.83C314.234 50.05 314.331 50.2133 314.524 50.32C314.718 50.4267 314.971 50.5033 315.284 50.55C315.604 50.5967 315.968 50.6267 316.374 50.64C316.781 50.6533 317.194 50.6767 317.614 50.71C318.034 50.7433 318.448 50.8 318.854 50.88C319.261 50.9533 319.621 51.08 319.934 51.26C320.254 51.4333 320.511 51.67 320.704 51.97C320.898 52.27 320.994 52.66 320.994 53.14C320.994 53.58 320.884 54.01 320.664 54.43C320.444 54.85 320.124 55.2233 319.704 55.55C319.291 55.8767 318.784 56.1367 318.184 56.33C317.584 56.53 316.901 56.63 316.134 56.63C315.374 56.63 314.711 56.5567 314.144 56.41C313.584 56.2633 313.114 56.0633 312.734 55.81C312.361 55.5633 312.081 55.2767 311.894 54.95C311.714 54.6233 311.624 54.2833 311.624 53.93C311.624 53.45 311.774 53.04 312.074 52.7C312.381 52.36 312.794 52.0933 313.314 51.9C313.034 51.7667 312.808 51.5833 312.634 51.35C312.468 51.1167 312.384 50.81 312.384 50.43C312.384 50.13 312.494 49.8167 312.714 49.49C312.934 49.1633 313.264 48.8867 313.704 48.66C313.198 48.38 312.798 48.01 312.504 47.55C312.211 47.0833 312.064 46.54 312.064 45.92C312.064 45.4133 312.161 44.9567 312.354 44.55C312.554 44.1433 312.831 43.7967 313.184 43.51C313.538 43.2233 313.954 43.0033 314.434 42.85C314.921 42.6967 315.451 42.62 316.024 42.62C316.904 42.62 317.671 42.8033 318.324 43.17H321.174Z" fill="#881418"/>
<path d="M189.06 71.49V76.1H194.69V77.99H189.06V84H186.71V69.6H195.69V71.49H189.06ZM201.15 73.64C201.903 73.64 202.583 73.7633 203.19 74.01C203.803 74.2567 204.323 74.6067 204.75 75.06C205.183 75.5133 205.516 76.0633 205.75 76.71C205.983 77.3567 206.1 78.0833 206.1 78.89C206.1 79.6967 205.983 80.4233 205.75 81.07C205.516 81.7167 205.183 82.27 204.75 82.73C204.323 83.1833 203.803 83.5333 203.19 83.78C202.583 84.0267 201.903 84.15 201.15 84.15C200.39 84.15 199.703 84.0267 199.09 83.78C198.483 83.5333 197.963 83.1833 197.53 82.73C197.096 82.27 196.763 81.7167 196.53 81.07C196.296 80.4233 196.18 79.6967 196.18 78.89C196.18 78.0833 196.296 77.3567 196.53 76.71C196.763 76.0633 197.096 75.5133 197.53 75.06C197.963 74.6067 198.483 74.2567 199.09 74.01C199.703 73.7633 200.39 73.64 201.15 73.64ZM201.15 82.47C202.07 82.47 202.753 82.1633 203.2 81.55C203.653 80.93 203.88 80.0467 203.88 78.9C203.88 77.7533 203.653 76.87 203.2 76.25C202.753 75.6233 202.07 75.31 201.15 75.31C200.216 75.31 199.523 75.6233 199.07 76.25C198.616 76.87 198.39 77.7533 198.39 78.9C198.39 80.0467 198.616 80.93 199.07 81.55C199.523 82.1633 200.216 82.47 201.15 82.47ZM210.195 75.69C210.515 75.0433 210.902 74.5367 211.355 74.17C211.809 73.7967 212.352 73.61 212.985 73.61C213.205 73.61 213.412 73.6367 213.605 73.69C213.799 73.7367 213.972 73.81 214.125 73.91L213.975 75.53C213.949 75.6433 213.905 75.7233 213.845 75.77C213.792 75.81 213.719 75.83 213.625 75.83C213.525 75.83 213.382 75.8133 213.195 75.78C213.009 75.74 212.812 75.72 212.605 75.72C212.305 75.72 212.039 75.7633 211.805 75.85C211.579 75.9367 211.372 76.0633 211.185 76.23C211.005 76.3967 210.845 76.6 210.705 76.84C210.565 77.08 210.435 77.3533 210.315 77.66V84H208.165V73.8H209.415C209.642 73.8 209.799 73.8433 209.885 73.93C209.972 74.01 210.032 74.1533 210.065 74.36L210.195 75.69ZM228.819 82.04V84H220.499V69.6H222.839V82.04H228.819ZM232.671 73.8V84H230.521V73.8H232.671ZM233.031 70.72C233.031 70.9133 232.991 71.0967 232.911 71.27C232.838 71.4433 232.734 71.5967 232.601 71.73C232.468 71.8567 232.311 71.96 232.131 72.04C231.958 72.1133 231.771 72.15 231.571 72.15C231.378 72.15 231.194 72.1133 231.021 72.04C230.854 71.96 230.708 71.8567 230.581 71.73C230.454 71.5967 230.351 71.4433 230.271 71.27C230.198 71.0967 230.161 70.9133 230.161 70.72C230.161 70.52 230.198 70.3333 230.271 70.16C230.351 69.9867 230.454 69.8367 230.581 69.71C230.708 69.5767 230.854 69.4733 231.021 69.4C231.194 69.32 231.378 69.28 231.571 69.28C231.771 69.28 231.958 69.32 232.131 69.4C232.311 69.4733 232.468 69.5767 232.601 69.71C232.734 69.8367 232.838 69.9867 232.911 70.16C232.991 70.3333 233.031 70.52 233.031 70.72ZM236.063 84V75.51L235.063 75.37C234.896 75.3367 234.759 75.2767 234.653 75.19C234.553 75.1033 234.503 74.98 234.503 74.82V73.94H236.063V73.08C236.063 72.5 236.146 71.98 236.313 71.52C236.486 71.06 236.729 70.67 237.043 70.35C237.363 70.03 237.749 69.7867 238.203 69.62C238.656 69.4467 239.166 69.36 239.733 69.36C239.966 69.36 240.186 69.3767 240.393 69.41C240.606 69.4433 240.813 69.4933 241.013 69.56L240.973 70.64C240.959 70.82 240.869 70.9267 240.703 70.96C240.543 70.9933 240.339 71.01 240.093 71.01C239.793 71.01 239.523 71.0467 239.283 71.12C239.043 71.1867 238.836 71.3033 238.663 71.47C238.496 71.6367 238.366 71.8567 238.273 72.13C238.186 72.4033 238.143 72.7433 238.143 73.15V73.94H240.933V75.49H238.213V84H236.063ZM248.859 77.75C248.859 77.39 248.806 77.0567 248.699 76.75C248.599 76.4367 248.449 76.1667 248.249 75.94C248.049 75.7067 247.799 75.5267 247.499 75.4C247.206 75.2667 246.866 75.2 246.479 75.2C245.699 75.2 245.086 75.4233 244.639 75.87C244.193 76.3167 243.909 76.9433 243.789 77.75H248.859ZM243.729 79.07C243.756 79.65 243.846 80.1533 243.999 80.58C244.153 81 244.356 81.35 244.609 81.63C244.869 81.91 245.176 82.12 245.529 82.26C245.889 82.3933 246.289 82.46 246.729 82.46C247.149 82.46 247.513 82.4133 247.819 82.32C248.126 82.22 248.393 82.1133 248.619 82C248.846 81.88 249.039 81.7733 249.199 81.68C249.359 81.58 249.506 81.53 249.639 81.53C249.813 81.53 249.946 81.5967 250.039 81.73L250.649 82.52C250.396 82.82 250.109 83.0733 249.789 83.28C249.469 83.4867 249.129 83.6567 248.769 83.79C248.409 83.9167 248.039 84.0067 247.659 84.06C247.279 84.12 246.909 84.15 246.549 84.15C245.843 84.15 245.186 84.0333 244.579 83.8C243.979 83.56 243.456 83.21 243.009 82.75C242.569 82.29 242.223 81.72 241.969 81.04C241.723 80.36 241.599 79.5767 241.599 78.69C241.599 77.9833 241.709 77.3233 241.929 76.71C242.156 76.0967 242.476 75.5633 242.889 75.11C243.309 74.6567 243.816 74.3 244.409 74.04C245.009 73.7733 245.686 73.64 246.439 73.64C247.066 73.64 247.646 73.7433 248.179 73.95C248.713 74.15 249.173 74.4467 249.559 74.84C249.946 75.2333 250.246 75.7167 250.459 76.29C250.679 76.8567 250.789 77.5033 250.789 78.23C250.789 78.5633 250.753 78.7867 250.679 78.9C250.606 79.0133 250.473 79.07 250.279 79.07H243.729ZM267.479 71.55H262.989V84H260.659V71.55H256.159V69.6H267.479V71.55ZM271.245 73.8V84H269.095V73.8H271.245ZM271.605 70.72C271.605 70.9133 271.565 71.0967 271.485 71.27C271.412 71.4433 271.309 71.5967 271.175 71.73C271.042 71.8567 270.885 71.96 270.705 72.04C270.532 72.1133 270.345 72.15 270.145 72.15C269.952 72.15 269.769 72.1133 269.595 72.04C269.429 71.96 269.282 71.8567 269.155 71.73C269.029 71.5967 268.925 71.4433 268.845 71.27C268.772 71.0967 268.735 70.9133 268.735 70.72C268.735 70.52 268.772 70.3333 268.845 70.16C268.925 69.9867 269.029 69.8367 269.155 69.71C269.282 69.5767 269.429 69.4733 269.595 69.4C269.769 69.32 269.952 69.28 270.145 69.28C270.345 69.28 270.532 69.32 270.705 69.4C270.885 69.4733 271.042 69.5767 271.175 69.71C271.309 69.8367 271.412 69.9867 271.485 70.16C271.565 70.3333 271.605 70.52 271.605 70.72ZM273.947 84V73.8H275.247C275.54 73.8 275.727 73.9367 275.807 74.21L275.947 75.1C276.133 74.8867 276.327 74.6933 276.527 74.52C276.727 74.34 276.94 74.1867 277.167 74.06C277.4 73.9267 277.647 73.8233 277.907 73.75C278.173 73.6767 278.46 73.64 278.767 73.64C279.093 73.64 279.393 73.6867 279.667 73.78C279.94 73.8733 280.18 74.0067 280.387 74.18C280.6 74.3533 280.783 74.5633 280.937 74.81C281.09 75.0567 281.217 75.3333 281.317 75.64C281.47 75.2867 281.663 74.9833 281.897 74.73C282.13 74.4767 282.39 74.27 282.677 74.11C282.963 73.95 283.267 73.8333 283.587 73.76C283.913 73.68 284.243 73.64 284.577 73.64C285.123 73.64 285.61 73.7267 286.037 73.9C286.47 74.0733 286.833 74.3267 287.127 74.66C287.427 74.9867 287.653 75.39 287.807 75.87C287.96 76.35 288.037 76.8967 288.037 77.51V84H285.887V77.51C285.887 76.79 285.73 76.25 285.417 75.89C285.11 75.5233 284.653 75.34 284.047 75.34C283.773 75.34 283.517 75.3867 283.277 75.48C283.037 75.5733 282.827 75.71 282.647 75.89C282.467 76.07 282.323 76.2967 282.217 76.57C282.117 76.8367 282.067 77.15 282.067 77.51V84H279.917V77.51C279.917 76.7633 279.767 76.2167 279.467 75.87C279.167 75.5167 278.727 75.34 278.147 75.34C277.747 75.34 277.377 75.4433 277.037 75.65C276.697 75.85 276.383 76.1267 276.097 76.48V84H273.947ZM297.238 77.75C297.238 77.39 297.185 77.0567 297.078 76.75C296.978 76.4367 296.828 76.1667 296.628 75.94C296.428 75.7067 296.178 75.5267 295.878 75.4C295.585 75.2667 295.245 75.2 294.858 75.2C294.078 75.2 293.465 75.4233 293.018 75.87C292.572 76.3167 292.288 76.9433 292.168 77.75H297.238ZM292.108 79.07C292.135 79.65 292.225 80.1533 292.378 80.58C292.532 81 292.735 81.35 292.988 81.63C293.248 81.91 293.555 82.12 293.908 82.26C294.268 82.3933 294.668 82.46 295.108 82.46C295.528 82.46 295.892 82.4133 296.198 82.32C296.505 82.22 296.772 82.1133 296.998 82C297.225 81.88 297.418 81.7733 297.578 81.68C297.738 81.58 297.885 81.53 298.018 81.53C298.192 81.53 298.325 81.5967 298.418 81.73L299.028 82.52C298.775 82.82 298.488 83.0733 298.168 83.28C297.848 83.4867 297.508 83.6567 297.148 83.79C296.788 83.9167 296.418 84.0067 296.038 84.06C295.658 84.12 295.288 84.15 294.928 84.15C294.222 84.15 293.565 84.0333 292.958 83.8C292.358 83.56 291.835 83.21 291.388 82.75C290.948 82.29 290.602 81.72 290.348 81.04C290.102 80.36 289.978 79.5767 289.978 78.69C289.978 77.9833 290.088 77.3233 290.308 76.71C290.535 76.0967 290.855 75.5633 291.268 75.11C291.688 74.6567 292.195 74.3 292.788 74.04C293.388 73.7733 294.065 73.64 294.818 73.64C295.445 73.64 296.025 73.7433 296.558 73.95C297.092 74.15 297.552 74.4467 297.938 74.84C298.325 75.2333 298.625 75.7167 298.838 76.29C299.058 76.8567 299.168 77.5033 299.168 78.23C299.168 78.5633 299.132 78.7867 299.058 78.9C298.985 79.0133 298.852 79.07 298.658 79.07H292.108Z" fill="black"/>
<line x1="166.35" y1="31" x2="166.35" y2="94" stroke="url(#paint1_linear_1337_3306)" stroke-width="0.7"/>
<path fill-rule="evenodd" clip-rule="evenodd" d="M114.427 64.2333H111.909C111.607 62.974 110.952 62.0671 110.347 60.7578L112.236 58.8939V55.7227L110.65 54.1611H107.476L105.588 56.025C104.328 55.4204 103.069 54.7657 101.785 54.4634V51.6426L99.5936 49.4264H97.3773L94.8338 51.6426V54.4634C93.5746 54.7657 92.6426 55.4204 91.3583 56.025L89.4945 54.1611H86.3213L84.7097 55.7227V58.8939L86.6236 60.7578C86.0209 62.0671 85.3644 62.974 85.037 64.2333H82.1912L80 66.7518V69.0181L82.1912 71.1842H85.037C85.3644 72.4435 86.019 73.7027 86.6236 74.962L84.7097 76.8759V80.0491L86.3213 81.6106H89.4945L91.3583 79.7468C92.6426 80.3514 93.5746 81.006 94.8338 81.3083V83.8268L97.3773 86.3453H99.5936L101.785 83.8268V81.3083C103.069 81.006 104.328 80.3514 105.588 79.7468L107.476 81.6106H110.65L112.236 80.0491V76.8759L110.347 74.962C110.952 73.7027 111.607 72.4435 111.909 71.1842H114.427L116.971 69.0181V66.7518L114.427 64.2333ZM130.896 76.8759H129.612C129.612 76.2713 129.284 75.6166 128.982 75.3143L129.939 74.3574V72.7958L129.284 72.1412H127.723L126.766 73.0981C126.463 72.7958 125.809 72.4435 125.204 72.1412V70.8819L124.247 69.925H122.988L122.031 70.8819V72.1412C121.401 72.4435 120.772 72.7958 120.47 73.0981L119.488 72.1412H117.928L117.298 72.7958V74.3574L118.23 75.3143C117.928 75.6166 117.601 76.2713 117.298 76.8759H116.014L115.082 77.8329V79.0921L116.014 80.0491H117.298C117.601 80.6537 117.928 81.006 118.23 81.6106L117.298 82.5676V84.1291L117.928 84.7838H119.488L120.47 83.8268C120.772 84.1291 121.401 84.4815 122.031 84.4815V85.6907L122.988 87H124.247L125.204 85.6907V84.4815C125.809 84.4815 126.463 84.1291 126.766 83.8268L127.723 84.7838H129.284L129.939 84.1291V82.5676L128.982 81.6106C129.284 81.006 129.612 80.6537 129.612 80.0491H130.896L132.155 79.0921V77.8329L130.896 76.8759ZM123.62 74.6597C125.811 74.6597 127.422 76.2713 127.422 78.4374C127.422 80.6537 125.811 82.2152 123.62 82.2152C121.403 82.2152 119.817 80.6537 119.817 78.4374C119.817 76.2713 121.403 74.6597 123.62 74.6597ZM123.62 74.962C125.508 74.962 127.095 76.5736 127.095 78.4374C127.095 80.3514 125.508 81.9129 123.62 81.9129C121.706 81.9129 120.144 80.3514 120.144 78.4374C120.144 76.5736 121.706 74.962 123.62 74.962ZM123.62 82.5676C121.403 82.5676 119.489 80.6537 119.489 78.4374C119.489 75.9189 121.403 74.0551 123.62 74.0551C125.811 74.0551 127.725 75.9189 127.725 78.4374C127.723 80.6537 125.811 82.5676 123.62 82.5676ZM136.89 49.4264H135.001C134.674 48.7717 134.371 47.8649 134.044 47.2102L135.303 45.5986V43.4324L134.044 42.4755H131.828L130.569 43.7347C129.612 43.0801 128.982 42.7778 128.025 42.7778V40.9139L126.463 39H124.877L123.29 40.9139V42.7778C122.333 42.7778 121.401 43.0801 120.772 43.7347L119.486 42.4755H117.294L116.01 43.4324V45.5986L117.294 47.2102C116.967 47.8649 116.665 48.7717 116.337 49.4264H114.427L112.866 50.988V52.5996L114.427 54.4634H116.341C116.669 55.1181 116.971 56.025 117.298 56.6797L116.014 58.2412V60.4574L117.298 61.4144H119.489L120.776 60.1551C121.405 60.4574 122.337 61.1121 123.294 61.1121V62.9759L124.881 64.5875H126.467L128.029 62.9759V61.1121C128.986 61.1121 129.615 60.4574 130.572 60.1551L131.832 61.4144H134.048L135.307 60.4574V58.2412L134.048 56.6797C134.375 56.025 134.678 55.1181 135.005 54.4634H136.894L138.48 52.5996V50.988L136.89 49.4264ZM125.507 46.2532C128.982 46.2532 131.501 48.7717 131.501 51.9449C131.501 55.1181 128.982 57.6366 125.507 57.6366C122.333 57.6366 119.815 55.1181 119.815 51.9449C119.817 48.7717 122.335 46.2532 125.507 46.2532ZM125.507 46.5555C128.68 46.5555 130.896 49.074 130.896 51.9449C130.896 54.7657 128.68 57.2842 125.507 57.2842C122.661 57.2842 120.47 54.7657 120.47 51.9449C120.471 49.074 122.661 46.5555 125.507 46.5555ZM125.507 58.2393C122.031 58.2393 119.185 55.4185 119.185 51.943C119.185 48.4675 122.031 45.5967 125.507 45.5967C129.284 45.5967 132.155 48.4675 132.155 51.943C132.157 55.4204 129.284 58.2393 125.507 58.2393ZM98.3093 59.4985C103.069 59.4985 106.872 63.3264 106.872 67.7087C106.872 72.4435 103.069 76.2713 98.3093 76.2713C93.9019 76.2713 90.0991 72.4435 90.0991 67.7087C90.101 63.3283 93.9019 59.4985 98.3093 59.4985ZM98.3093 60.1551C102.767 60.1551 105.915 63.6306 105.915 67.7087C105.915 72.1412 102.767 75.3143 98.3093 75.3143C94.2292 75.3143 90.7537 72.1412 90.7537 67.7087C90.7557 63.6287 94.2311 60.1551 98.3093 60.1551ZM98.3093 77.1782C93.2723 77.1782 89.1691 72.7958 89.1691 67.7087C89.1691 62.6717 93.2742 58.5936 98.3093 58.5936C103.396 58.5936 107.804 62.6736 107.804 67.7087C107.804 72.7958 103.398 77.1782 98.3093 77.1782Z" fill="#881418"/>
<g filter="url(#filter1_d_1337_3306)">
<circle cx="32" cy="63" r="25" fill="white"/>
<circle cx="32" cy="63" r="26" stroke="#ED1C24" stroke-width="2"/>
</g>
<path d="M29.99 63.493C29.99 64.627 29.867 65.614 29.621 66.454C29.381 67.288 29.045 67.978 28.613 68.524C28.187 69.07 27.68 69.478 27.092 69.748C26.51 70.012 25.88 70.144 25.202 70.144C24.524 70.144 23.894 70.012 23.312 69.748C22.736 69.478 22.235 69.07 21.809 68.524C21.383 67.978 21.05 67.288 20.81 66.454C20.57 65.614 20.45 64.627 20.45 63.493C20.45 62.353 20.57 61.366 20.81 60.532C21.05 59.698 21.383 59.008 21.809 58.462C22.235 57.916 22.736 57.511 23.312 57.247C23.894 56.977 24.524 56.842 25.202 56.842C25.88 56.842 26.51 56.977 27.092 57.247C27.68 57.511 28.187 57.916 28.613 58.462C29.045 59.008 29.381 59.698 29.621 60.532C29.867 61.366 29.99 62.353 29.99 63.493ZM27.695 63.493C27.695 62.551 27.626 61.771 27.488 61.153C27.35 60.535 27.164 60.043 26.93 59.677C26.702 59.311 26.438 59.056 26.138 58.912C25.838 58.762 25.526 58.687 25.202 58.687C24.884 58.687 24.575 58.762 24.275 58.912C23.981 59.056 23.72 59.311 23.492 59.677C23.264 60.043 23.081 60.535 22.943 61.153C22.811 61.771 22.745 62.551 22.745 63.493C22.745 64.435 22.811 65.215 22.943 65.833C23.081 66.451 23.264 66.943 23.492 67.309C23.72 67.675 23.981 67.933 24.275 68.083C24.575 68.227 24.884 68.299 25.202 68.299C25.526 68.299 25.838 68.227 26.138 68.083C26.438 67.933 26.702 67.675 26.93 67.309C27.164 66.943 27.35 66.451 27.488 65.833C27.626 65.215 27.695 64.435 27.695 63.493ZM31.4134 60.613C31.5034 59.989 31.6774 59.443 31.9354 58.975C32.1934 58.501 32.5144 58.108 32.8984 57.796C33.2884 57.478 33.7324 57.241 34.2304 57.085C34.7344 56.923 35.2744 56.842 35.8504 56.842C36.4504 56.842 36.9904 56.929 37.4704 57.103C37.9564 57.271 38.3704 57.508 38.7124 57.814C39.0544 58.114 39.3154 58.468 39.4954 58.876C39.6814 59.284 39.7744 59.725 39.7744 60.199C39.7744 60.613 39.7264 60.979 39.6304 61.297C39.5404 61.609 39.4084 61.882 39.2344 62.116C39.0604 62.35 38.8444 62.548 38.5864 62.71C38.3284 62.872 38.0374 63.007 37.7134 63.115C38.4934 63.361 39.0754 63.736 39.4594 64.24C39.8434 64.744 40.0354 65.377 40.0354 66.139C40.0354 66.787 39.9154 67.36 39.6754 67.858C39.4354 68.356 39.1114 68.776 38.7034 69.118C38.2954 69.454 37.8214 69.709 37.2814 69.883C36.7474 70.057 36.1804 70.144 35.5804 70.144C34.9264 70.144 34.3564 70.069 33.8704 69.919C33.3844 69.769 32.9614 69.547 32.6014 69.253C32.2414 68.959 31.9354 68.599 31.6834 68.173C31.4314 67.747 31.2154 67.255 31.0354 66.697L32.0164 66.292C32.2744 66.184 32.5144 66.157 32.7364 66.211C32.9644 66.259 33.1294 66.379 33.2314 66.571C33.3394 66.781 33.4564 66.988 33.5824 67.192C33.7144 67.396 33.8704 67.579 34.0504 67.741C34.2304 67.897 34.4404 68.026 34.6804 68.128C34.9264 68.224 35.2174 68.272 35.5534 68.272C35.9314 68.272 36.2614 68.212 36.5434 68.092C36.8254 67.966 37.0594 67.804 37.2454 67.606C37.4374 67.408 37.5784 67.189 37.6684 66.949C37.7644 66.703 37.8124 66.457 37.8124 66.211C37.8124 65.899 37.7794 65.617 37.7134 65.365C37.6474 65.107 37.5094 64.888 37.2994 64.708C37.0894 64.528 36.7864 64.387 36.3904 64.285C36.0004 64.183 35.4754 64.132 34.8154 64.132V62.548C35.3614 62.542 35.8144 62.491 36.1744 62.395C36.5344 62.299 36.8194 62.167 37.0294 61.999C37.2454 61.825 37.3954 61.618 37.4794 61.378C37.5634 61.138 37.6054 60.874 37.6054 60.586C37.6054 59.974 37.4344 59.509 37.0924 59.191C36.7504 58.873 36.2944 58.714 35.7244 58.714C35.4604 58.714 35.2174 58.753 34.9954 58.831C34.7734 58.903 34.5724 59.008 34.3924 59.146C34.2184 59.278 34.0714 59.434 33.9514 59.614C33.8314 59.794 33.7414 59.992 33.6814 60.208C33.5794 60.484 33.4444 60.667 33.2764 60.757C33.1144 60.847 32.8834 60.868 32.5834 60.82L31.4134 60.613Z" fill="#ED1C24"/>
</g>
<defs>
<filter id="filter0_d_1337_3306" x="-2" y="0" width="358" height="135.361" filterUnits="userSpaceOnUse" color-interpolation-filters="sRGB">
<feFlood flood-opacity="0" result="BackgroundImageFix"/>
<feColorMatrix in="SourceAlpha" type="matrix" values="0 0 0 0 0 0 0 0 0 0 0 0 0 0 0 0 0 0 127 0" result="hardAlpha"/>
<feOffset dx="2" dy="5"/>
<feGaussianBlur stdDeviation="2"/>
<feComposite in2="hardAlpha" operator="out"/>
<feColorMatrix type="matrix" values="0 0 0 0 0 0 0 0 0 0 0 0 0 0 0 0 0 0 0.2 0"/>
<feBlend mode="normal" in2="BackgroundImageFix" result="effect1_dropShadow_1337_3306"/>
<feBlend mode="normal" in="SourceGraphic" in2="effect1_dropShadow_1337_3306" result="shape"/>
</filter>
<filter id="filter1_d_1337_3306" x="1" y="36" width="62" height="62" filterUnits="userSpaceOnUse" color-interpolation-filters="sRGB">
<feFlood flood-opacity="0" result="BackgroundImageFix"/>
<feColorMatrix in="SourceAlpha" type="matrix" values="0 0 0 0 0 0 0 0 0 0 0 0 0 0 0 0 0 0 127 0" result="hardAlpha"/>
<feOffset dy="4"/>
<feGaussianBlur stdDeviation="2"/>
<feComposite in2="hardAlpha" operator="out"/>
<feColorMatrix type="matrix" values="0 0 0 0 0 0 0 0 0 0 0 0 0 0 0 0 0 0 0.25 0"/>
<feBlend mode="normal" in2="BackgroundImageFix" result="effect1_dropShadow_1337_3306"/>
<feBlend mode="normal" in="SourceGraphic" in2="effect1_dropShadow_1337_3306" result="shape"/>
</filter>
<linearGradient id="paint0_linear_1337_3306" x1="18.5893" y1="63" x2="367.348" y2="63" gradientUnits="userSpaceOnUse">
<stop stop-color="#ED1C24"/>
<stop offset="1" stop-color="#881418"/>
</linearGradient>
<linearGradient id="paint1_linear_1337_3306" x1="166" y1="31" x2="166" y2="96.5" gradientUnits="userSpaceOnUse">
<stop stop-color="#ED1C24"/>
<stop offset="1" stop-color="#881418"/>
</linearGradient>
</defs>
</svg>
