<svg width="356" height="135" viewBox="0 0 356 135" fill="none" xmlns="http://www.w3.org/2000/svg">
<g filter="url(#filter0_d_1335_3910)">
<path d="M55.7871 4.45922L18.8531 59.9501C16.5369 63.4301 16.6297 67.9836 19.0859 71.3663L55.7603 121.875C57.6417 124.467 60.6501 126 63.8522 126H340C345.523 126 350 121.523 350 116V10C350 4.47715 345.523 0 340 0H64.1118C60.7656 0 57.6412 1.67365 55.7871 4.45922Z" fill="url(#paint0_linear_1335_3910)"/>
<path d="M64.8797 18.7161L32.3027 59.0444C29.2399 62.8358 29.3567 68.283 32.5791 71.9397L64.8956 108.612C66.794 110.766 69.5268 112 72.3981 112H330C335.523 112 340 107.523 340 102V25C340 19.4772 335.523 15 330 15H72.6588C69.6375 15 66.7783 16.3659 64.8797 18.7161Z" fill="white"/>
<path d="M85.4617 66.0888C85.6641 66.3762 85.9286 66.7634 86.2193 67.2192C86.8665 68.2338 87.6325 69.5708 88.1392 70.8949C88.6569 72.2476 88.8544 73.4617 88.5323 74.3033C88.3797 74.7019 88.1037 75.0363 87.6376 75.2799C87.1594 75.5298 86.4608 75.6938 85.4616 75.6938C84.4626 75.6938 83.764 75.5298 83.2859 75.2799C82.8198 75.0363 82.5439 74.7019 82.3913 74.3033C82.0692 73.4617 82.2667 72.2475 82.7844 70.8948C83.291 69.5708 84.057 68.2338 84.7041 67.2191C84.9948 66.7634 85.2592 66.3762 85.4617 66.0888Z" stroke="#881418"/>
<path d="M81.0101 76.5924C81.062 76.6337 81.1154 76.6741 81.1704 76.7136C82.1476 77.4159 83.5561 77.7902 85.4617 77.7902C87.3674 77.7902 88.7761 77.4162 89.7536 76.7141C89.8086 76.6746 89.8621 76.6342 89.9141 76.5929C89.8277 76.7277 89.7299 76.8546 89.6201 76.9733C88.9293 77.7203 87.6638 78.2526 85.4617 78.2526C83.2597 78.2526 81.9947 77.7202 81.3041 76.9732C81.1943 76.8544 81.0964 76.7273 81.0101 76.5924Z" stroke="#881418"/>
<path d="M85.4618 62.4123L85.8796 62.1377L85.4617 61.5017L85.0439 62.1377L85.4618 62.4123ZM85.4618 62.4123C85.0439 62.1377 85.0438 62.1378 85.0438 62.1379L85.0436 62.1382L85.0428 62.1393L85.0402 62.1434L85.0302 62.1587L84.9919 62.2176C84.9586 62.2692 84.9099 62.345 84.8477 62.4429C84.7234 62.6386 84.5453 62.9227 84.329 63.2778C83.8966 63.9877 83.3108 64.9829 82.6969 66.1247C82.2167 67.0177 81.7147 68.0087 81.2546 69.0282C81.6705 67.9047 82.2186 66.768 82.7954 65.7111C83.5242 64.3754 84.2913 63.1806 84.8768 62.3188C85.1038 61.9849 85.3031 61.7015 85.4618 61.48C85.6206 61.7015 85.8199 61.9849 86.0469 62.3188C86.6325 63.1805 87.3997 64.3754 88.1286 65.7111C88.7056 66.7682 89.2539 67.9051 89.6698 69.0289C89.2096 68.0091 88.7075 67.0179 88.2271 66.1247C87.6131 64.9829 87.0271 63.9877 86.5947 63.2777C86.3783 62.9226 86.2002 62.6386 86.0759 62.4428C86.0137 62.345 85.9649 62.2692 85.9316 62.2176L85.8933 62.1587L85.8833 62.1433L85.8807 62.1393L85.8799 62.1382L85.8797 62.1378C85.8797 62.1378 85.8796 62.1377 85.4618 62.4123Z" stroke="#881418"/>
<path d="M98.4869 52.7158L98.3902 52.7026L98.2956 52.7268L84.646 56.2204C84.4429 56.2697 84.2375 56.1519 84.1772 55.9534L84.1772 55.9532L83.2484 52.8974C83.2484 52.8974 83.2484 52.8973 83.2483 52.8973C83.1845 52.6867 83.306 52.4655 83.5183 52.4065L83.5183 52.4065L83.5206 52.4059L97.3132 48.5048C97.3132 48.5048 97.3132 48.5048 97.3132 48.5048C97.7519 48.3808 98.2124 48.3474 98.6649 48.4067L108.294 49.8187L107.598 53.9547L98.4869 52.7158Z" stroke="#881418"/>
<path d="M124.721 59.0849L124.721 59.0849L124.723 59.0826C125.647 58.2105 127.01 58.1285 127.839 58.7812C127.839 58.7812 127.839 58.7812 127.839 58.7812L138.947 67.5242C139.469 67.9355 139.555 68.692 139.139 69.2092L139.134 69.2153L139.129 69.2216L133.832 76.2459C133.453 76.7118 132.742 76.7257 132.344 76.2738L122.194 64.2944L122.194 64.2944L122.189 64.2888C121.806 63.8492 121.565 63.3495 121.52 62.8826C121.477 62.4358 121.608 61.9913 122.025 61.5961L124.721 59.0849ZM132.669 75.6361L133.078 76.1098L133.45 75.6072L135.841 72.3782L136.11 72.0157L135.777 71.7115C134.319 70.3799 129.702 66.1615 128.627 65.155L128.627 65.1549C127.234 63.8528 125.416 63.2596 123.146 63.2955L122.164 63.3111L122.755 64.0961C122.888 64.2728 123.032 64.4484 123.171 64.6164L123.171 64.6165L123.178 64.624L132.669 75.6361ZM135.78 71.5344L136.19 71.9084L136.519 71.4628L138.673 68.5539L138.955 68.1724L138.589 67.8705L128.334 59.4171C127.899 59.0395 127.4 58.6791 126.866 58.5433C126.588 58.4726 126.292 58.4605 125.993 58.5441C125.697 58.6267 125.429 58.794 125.188 59.0354L122.59 61.452L122.582 61.4599L122.574 61.4681C122.197 61.8523 122.051 62.2919 122.107 62.751L122.173 63.2937L122.707 63.1797L122.723 63.1764L122.729 63.1753C125.28 63.0546 127.274 63.7076 128.718 65.0588L128.718 65.0589C129.769 66.0422 134.179 70.0709 135.751 71.5073L135.78 71.5344Z" stroke="#881418"/>
<path d="M128.432 52.1199L128.401 52.4172L128.648 52.5855L147.714 65.5686C147.877 65.7001 147.904 65.9397 147.772 66.1037L147.772 66.1036L147.766 66.1113L144.621 70.1877C144.596 70.2167 144.509 70.2838 144.365 70.3389C144.216 70.3954 144.104 70.4018 144.068 70.3959L144.068 70.3958L143.192 70.2513C143.192 70.2512 143.192 70.2512 143.191 70.2511C142.688 70.1663 142.183 70.3667 141.872 70.7668L141.871 70.7679L135.437 79.0896L135.437 79.0895L135.431 79.0976C134.58 80.246 133.741 80.5373 133.06 80.4963C132.344 80.4531 131.674 80.0353 131.212 79.5349C131.212 79.5343 131.211 79.5336 131.211 79.533L108.382 54.1812L108.382 54.1812L108.377 54.1753C108.291 54.0833 108.182 53.9569 108.102 53.8333C108.063 53.7715 108.039 53.7238 108.027 53.692C108.027 53.6906 108.026 53.6893 108.026 53.688L108.654 49.8741C108.666 49.8748 108.68 49.8756 108.695 49.8766C108.737 49.8795 108.783 49.8835 108.836 49.8882C108.842 49.8888 108.848 49.8893 108.855 49.8899C108.902 49.8941 108.953 49.8987 109.006 49.9028L109.007 49.9029L113.657 50.2536L114.113 50.2879L114.188 49.837L114.286 49.2462L114.291 49.247L114.377 48.7597L114.803 46.355L114.805 46.3452L114.806 46.3353C114.843 46.0691 115.008 45.8429 115.255 45.687C115.509 45.5266 115.8 45.4733 116.011 45.5122L116.02 45.5141L116.03 45.5155L128.449 47.3025C128.653 47.3423 128.749 47.4348 128.804 47.5407C128.869 47.6675 128.901 47.8727 128.85 48.1522L128.846 48.1714L128.844 48.1908L128.543 51.0645L128.543 51.0647L128.432 52.1199ZM108.021 53.6726C108.021 53.6727 108.021 53.6733 108.022 53.6746L108.021 53.6726ZM134.616 76.8677L134.621 76.8615L134.626 76.8552L139.924 69.83C140.683 68.8785 140.522 67.492 139.565 66.7387C139.565 66.7387 139.565 66.7387 139.565 66.7387L128.458 57.9959L128.458 57.9958C127.183 56.992 125.266 57.1959 124.038 58.3549C124.038 58.3553 124.037 58.3557 124.037 58.3561L121.343 60.8662L121.343 60.8662L121.34 60.8686C120.691 61.4823 120.453 62.2338 120.525 62.979C120.595 63.7033 120.952 64.391 121.434 64.9441L131.584 76.924L131.584 76.924L131.589 76.9299C132.398 77.8541 133.846 77.8246 134.616 76.8677Z" stroke="#881418"/>
<path d="M105.12 53.6179L105.806 49.4544L108.293 49.8189L107.598 53.9548L105.12 53.6179Z" stroke="#881418"/>
<path d="M113.695 49.7551L127.076 51.8634" stroke="#881418" stroke-miterlimit="10" stroke-linecap="round" stroke-linejoin="round"/>
<path d="M108.688 50.4841L108.011 54.5155" stroke="#881418" stroke-miterlimit="10" stroke-linecap="round" stroke-linejoin="round"/>
<path d="M123.903 55.408L115.651 62.9999" stroke="#881418" stroke-miterlimit="10" stroke-linecap="round" stroke-linejoin="round"/>
<path d="M150.903 70.8672L150.903 70.8674C150.735 71.0848 150.422 71.1253 150.204 70.9575C150.204 70.9575 150.204 70.9575 150.204 70.9575L147.12 68.5844L148.222 67.1574L151.306 69.5309C151.306 69.5309 151.307 69.531 151.307 69.5311C151.524 69.6994 151.564 70.0108 151.397 70.2285C151.397 70.2286 151.397 70.2287 151.397 70.2288L150.903 70.8672Z" stroke="#881418"/>
<path d="M195.27 51.37V53H187.42V51.37H190.42V42.35C190.42 42.03 190.43 41.7033 190.45 41.37L188.14 43.32C188.04 43.4 187.937 43.4533 187.83 43.48C187.73 43.5 187.633 43.5 187.54 43.48C187.453 43.46 187.373 43.43 187.3 43.39C187.233 43.3433 187.18 43.2933 187.14 43.24L186.47 42.3L190.81 38.57H192.56V51.37H195.27ZM206.442 50.97C206.675 50.97 206.858 51.04 206.992 51.18C207.125 51.3133 207.192 51.4867 207.192 51.7V53H197.452V52.27C197.452 52.1233 197.482 51.97 197.542 51.81C197.602 51.65 197.698 51.5033 197.832 51.37L202.312 46.88C202.692 46.5 203.028 46.1367 203.322 45.79C203.622 45.4433 203.875 45.0967 204.082 44.75C204.295 44.4033 204.455 44.0533 204.562 43.7C204.675 43.34 204.732 42.9633 204.732 42.57C204.732 42.19 204.672 41.8567 204.552 41.57C204.438 41.2767 204.278 41.0367 204.072 40.85C203.872 40.6567 203.628 40.5133 203.342 40.42C203.062 40.32 202.752 40.27 202.412 40.27C202.085 40.27 201.782 40.3167 201.502 40.41C201.228 40.5033 200.982 40.6333 200.762 40.8C200.548 40.9667 200.368 41.1667 200.222 41.4C200.082 41.6267 199.978 41.8767 199.912 42.15C199.812 42.4233 199.682 42.6067 199.522 42.7C199.368 42.7933 199.142 42.8133 198.842 42.76L197.712 42.56C197.812 41.88 197.998 41.2833 198.272 40.77C198.552 40.2567 198.902 39.83 199.322 39.49C199.742 39.1433 200.222 38.8833 200.762 38.71C201.308 38.53 201.898 38.44 202.532 38.44C203.172 38.44 203.758 38.5367 204.292 38.73C204.832 38.9167 205.295 39.1867 205.682 39.54C206.075 39.8867 206.382 40.31 206.602 40.81C206.822 41.31 206.932 41.8733 206.932 42.5C206.932 43.0333 206.852 43.5267 206.692 43.98C206.538 44.4333 206.328 44.8667 206.062 45.28C205.795 45.6933 205.482 46.0967 205.122 46.49C204.768 46.8767 204.395 47.27 204.002 47.67L200.522 51.23C200.808 51.15 201.095 51.0867 201.382 51.04C201.675 50.9933 201.952 50.97 202.212 50.97H206.442ZM209.183 51.76C209.183 51.5667 209.216 51.3867 209.283 51.22C209.356 51.0467 209.453 50.8967 209.573 50.77C209.7 50.6433 209.846 50.5433 210.013 50.47C210.186 50.3967 210.37 50.36 210.563 50.36C210.756 50.36 210.936 50.3967 211.103 50.47C211.276 50.5433 211.426 50.6433 211.553 50.77C211.68 50.8967 211.78 51.0467 211.853 51.22C211.926 51.3867 211.963 51.5667 211.963 51.76C211.963 51.96 211.926 52.1433 211.853 52.31C211.78 52.4767 211.68 52.6233 211.553 52.75C211.426 52.8767 211.276 52.9733 211.103 53.04C210.936 53.1133 210.756 53.15 210.563 53.15C210.37 53.15 210.186 53.1133 210.013 53.04C209.846 52.9733 209.7 52.8767 209.573 52.75C209.453 52.6233 209.356 52.4767 209.283 52.31C209.216 52.1433 209.183 51.96 209.183 51.76ZM216.78 43.92C217.126 43.8467 217.456 43.7933 217.77 43.76C218.09 43.7267 218.396 43.71 218.69 43.71C219.443 43.71 220.106 43.8233 220.68 44.05C221.26 44.27 221.743 44.5767 222.13 44.97C222.523 45.3633 222.816 45.8267 223.01 46.36C223.21 46.8867 223.31 47.46 223.31 48.08C223.31 48.8467 223.176 49.5433 222.91 50.17C222.643 50.7967 222.273 51.3333 221.8 51.78C221.326 52.22 220.766 52.56 220.12 52.8C219.48 53.04 218.786 53.16 218.04 53.16C217.6 53.16 217.18 53.1167 216.78 53.03C216.386 52.9433 216.016 52.8267 215.67 52.68C215.323 52.5267 215.003 52.3533 214.71 52.16C214.416 51.96 214.153 51.7533 213.92 51.54L214.58 50.62C214.72 50.42 214.906 50.32 215.14 50.32C215.286 50.32 215.446 50.3733 215.62 50.48C215.793 50.5867 215.993 50.7033 216.22 50.83C216.453 50.95 216.726 51.0633 217.04 51.17C217.353 51.2767 217.726 51.33 218.16 51.33C218.633 51.33 219.056 51.2533 219.43 51.1C219.803 50.9467 220.116 50.7333 220.37 50.46C220.63 50.18 220.826 49.8467 220.96 49.46C221.093 49.0733 221.16 48.65 221.16 48.19C221.16 47.77 221.096 47.3933 220.97 47.06C220.85 46.7267 220.666 46.4433 220.42 46.21C220.18 45.9767 219.876 45.8 219.51 45.68C219.143 45.5533 218.72 45.49 218.24 45.49C217.886 45.49 217.523 45.52 217.15 45.58C216.783 45.64 216.41 45.7333 216.03 45.86L214.69 45.48L215.87 38.6H222.84V39.53C222.84 39.8367 222.743 40.0867 222.55 40.28C222.356 40.4733 222.033 40.57 221.58 40.57H217.36L216.78 43.92ZM231.871 42.08C231.871 42.6333 231.781 43.13 231.601 43.57C231.428 44.01 231.191 44.3867 230.891 44.7C230.591 45.0067 230.245 45.2433 229.851 45.41C229.458 45.57 229.045 45.65 228.611 45.65C228.145 45.65 227.711 45.57 227.311 45.41C226.918 45.2433 226.575 45.0067 226.281 44.7C225.995 44.3867 225.768 44.01 225.601 43.57C225.435 43.13 225.351 42.6333 225.351 42.08C225.351 41.5133 225.435 41.0067 225.601 40.56C225.768 40.1067 225.995 39.7267 226.281 39.42C226.575 39.1067 226.918 38.8667 227.311 38.7C227.711 38.5333 228.145 38.45 228.611 38.45C229.078 38.45 229.508 38.5333 229.901 38.7C230.301 38.8667 230.645 39.1067 230.931 39.42C231.225 39.7267 231.455 40.1067 231.621 40.56C231.788 41.0067 231.871 41.5133 231.871 42.08ZM230.211 42.08C230.211 41.6733 230.168 41.33 230.081 41.05C230.001 40.7633 229.888 40.5333 229.741 40.36C229.601 40.18 229.431 40.0533 229.231 39.98C229.038 39.9 228.831 39.86 228.611 39.86C228.385 39.86 228.175 39.9 227.981 39.98C227.788 40.0533 227.621 40.18 227.481 40.36C227.341 40.5333 227.231 40.7633 227.151 41.05C227.071 41.33 227.031 41.6733 227.031 42.08C227.031 42.48 227.071 42.8167 227.151 43.09C227.231 43.3633 227.341 43.5867 227.481 43.76C227.621 43.9267 227.788 44.0467 227.981 44.12C228.175 44.1933 228.385 44.23 228.611 44.23C228.831 44.23 229.038 44.1933 229.231 44.12C229.431 44.0467 229.601 43.9267 229.741 43.76C229.888 43.5867 230.001 43.3633 230.081 43.09C230.168 42.8167 230.211 42.48 230.211 42.08ZM236.811 38.95C236.885 38.8567 236.971 38.7767 237.071 38.71C237.178 38.6367 237.325 38.6 237.511 38.6H239.061L228.451 52.67C228.378 52.7633 228.288 52.8433 228.181 52.91C228.075 52.97 227.945 53 227.791 53H226.191L236.811 38.95ZM239.931 49.61C239.931 50.1633 239.841 50.66 239.661 51.1C239.481 51.54 239.241 51.9133 238.941 52.22C238.641 52.5267 238.295 52.7633 237.901 52.93C237.508 53.09 237.095 53.17 236.661 53.17C236.195 53.17 235.761 53.09 235.361 52.93C234.968 52.7633 234.625 52.5267 234.331 52.22C234.045 51.9133 233.818 51.54 233.651 51.1C233.491 50.66 233.411 50.1633 233.411 49.61C233.411 49.0433 233.491 48.5367 233.651 48.09C233.818 47.6367 234.045 47.2533 234.331 46.94C234.625 46.6267 234.968 46.39 235.361 46.23C235.761 46.0633 236.195 45.98 236.661 45.98C237.128 45.98 237.561 46.0633 237.961 46.23C238.361 46.39 238.705 46.6267 238.991 46.94C239.285 47.2533 239.515 47.6367 239.681 48.09C239.848 48.5367 239.931 49.0433 239.931 49.61ZM238.271 49.61C238.271 49.2033 238.228 48.86 238.141 48.58C238.061 48.2933 237.948 48.0633 237.801 47.89C237.655 47.71 237.481 47.5833 237.281 47.51C237.088 47.43 236.881 47.39 236.661 47.39C236.441 47.39 236.235 47.43 236.041 47.51C235.848 47.5833 235.678 47.71 235.531 47.89C235.391 48.0633 235.281 48.2933 235.201 48.58C235.121 48.86 235.081 49.2033 235.081 49.61C235.081 50.01 235.121 50.3467 235.201 50.62C235.281 50.8933 235.391 51.1167 235.531 51.29C235.678 51.4567 235.848 51.5767 236.041 51.65C236.235 51.7233 236.441 51.76 236.661 51.76C236.881 51.76 237.088 51.7233 237.281 51.65C237.481 51.5767 237.655 51.4567 237.801 51.29C237.948 51.1167 238.061 50.8933 238.141 50.62C238.228 50.3467 238.271 50.01 238.271 49.61Z" fill="#881418"/>
<path d="M200.15 76.82C200.15 77.8933 199.977 78.88 199.63 79.78C199.29 80.6733 198.807 81.4467 198.18 82.1C197.553 82.7467 196.803 83.25 195.93 83.61C195.057 83.97 194.087 84.15 193.02 84.15C191.96 84.15 190.99 83.97 190.11 83.61C189.237 83.25 188.487 82.7467 187.86 82.1C187.24 81.4467 186.757 80.6733 186.41 79.78C186.063 78.88 185.89 77.8933 185.89 76.82C185.89 75.7533 186.063 74.77 186.41 73.87C186.757 72.97 187.24 72.1967 187.86 71.55C188.487 70.8967 189.237 70.39 190.11 70.03C190.99 69.6633 191.96 69.48 193.02 69.48C194.087 69.48 195.057 69.6633 195.93 70.03C196.803 70.39 197.553 70.8967 198.18 71.55C198.807 72.1967 199.29 72.97 199.63 73.87C199.977 74.77 200.15 75.7533 200.15 76.82ZM197.97 76.82C197.97 75.9667 197.853 75.2 197.62 74.52C197.387 73.84 197.053 73.2633 196.62 72.79C196.193 72.3167 195.673 71.9533 195.06 71.7C194.453 71.4467 193.773 71.32 193.02 71.32C192.267 71.32 191.583 71.4467 190.97 71.7C190.363 71.9533 189.843 72.3167 189.41 72.79C188.977 73.2633 188.643 73.84 188.41 74.52C188.177 75.2 188.06 75.9667 188.06 76.82C188.06 77.68 188.177 78.45 188.41 79.13C188.643 79.8033 188.977 80.3767 189.41 80.85C189.843 81.3233 190.363 81.6867 190.97 81.94C191.583 82.1867 192.267 82.31 193.02 82.31C193.773 82.31 194.453 82.1867 195.06 81.94C195.673 81.6867 196.193 81.3233 196.62 80.85C197.053 80.3767 197.387 79.8033 197.62 79.13C197.853 78.45 197.97 77.68 197.97 76.82ZM203.017 84V75.44L201.957 75.31C201.803 75.2767 201.677 75.2233 201.577 75.15C201.483 75.07 201.437 74.9567 201.437 74.81V74H203.017V73.08C203.017 72.5 203.1 71.9833 203.267 71.53C203.433 71.0767 203.67 70.6933 203.977 70.38C204.29 70.06 204.663 69.82 205.097 69.66C205.537 69.4933 206.03 69.41 206.577 69.41C207.037 69.41 207.46 69.4767 207.847 69.61L207.807 70.59C207.8 70.6767 207.773 70.7433 207.727 70.79C207.68 70.83 207.617 70.86 207.537 70.88C207.463 70.9 207.37 70.9133 207.257 70.92C207.15 70.92 207.033 70.92 206.907 70.92C206.607 70.92 206.333 70.9567 206.087 71.03C205.84 71.1033 205.63 71.2267 205.457 71.4C205.283 71.5733 205.15 71.8033 205.057 72.09C204.963 72.37 204.917 72.72 204.917 73.14V74H207.767V75.42H204.977V84H203.017ZM216.625 71.37V76.18H222.385V77.91H216.625V84H214.485V69.64H223.385V71.37H216.625ZM233.101 73.84V84H231.931C231.665 84 231.491 83.87 231.411 83.61L231.271 82.59C231.051 82.8233 230.821 83.0367 230.581 83.23C230.341 83.4233 230.085 83.59 229.811 83.73C229.538 83.8633 229.248 83.9667 228.941 84.04C228.635 84.12 228.305 84.16 227.951 84.16C227.391 84.16 226.898 84.0667 226.471 83.88C226.051 83.6933 225.698 83.4333 225.411 83.1C225.125 82.76 224.908 82.3533 224.761 81.88C224.615 81.4067 224.541 80.8833 224.541 80.31V73.84H226.501V80.31C226.501 81.0367 226.668 81.6033 227.001 82.01C227.335 82.41 227.845 82.61 228.531 82.61C229.031 82.61 229.498 82.4933 229.931 82.26C230.365 82.02 230.771 81.6933 231.151 81.28V73.84H233.101ZM242.553 77.79C242.553 77.4033 242.496 77.0467 242.383 76.72C242.276 76.3933 242.116 76.11 241.903 75.87C241.69 75.63 241.43 75.4433 241.123 75.31C240.816 75.1767 240.463 75.11 240.063 75.11C239.243 75.11 238.596 75.3467 238.123 75.82C237.656 76.2933 237.36 76.95 237.233 77.79H242.553ZM244.163 82.55C243.923 82.83 243.646 83.0733 243.333 83.28C243.02 83.48 242.686 83.6433 242.333 83.77C241.98 83.8967 241.613 83.99 241.233 84.05C240.86 84.11 240.49 84.14 240.123 84.14C239.423 84.14 238.773 84.0233 238.173 83.79C237.58 83.55 237.063 83.2033 236.623 82.75C236.19 82.29 235.85 81.7233 235.603 81.05C235.363 80.37 235.243 79.59 235.243 78.71C235.243 78.0033 235.353 77.3467 235.573 76.74C235.793 76.1267 236.106 75.5933 236.513 75.14C236.926 74.6867 237.43 74.33 238.023 74.07C238.616 73.81 239.283 73.68 240.023 73.68C240.643 73.68 241.213 73.7833 241.733 73.99C242.26 74.19 242.713 74.4833 243.093 74.87C243.473 75.2567 243.77 75.7333 243.983 76.3C244.203 76.8667 244.313 77.5133 244.313 78.24C244.313 78.54 244.28 78.7433 244.213 78.85C244.146 78.95 244.023 79 243.843 79H237.183C237.203 79.6067 237.29 80.1367 237.443 80.59C237.596 81.0367 237.806 81.41 238.073 81.71C238.346 82.01 238.67 82.2333 239.043 82.38C239.416 82.5267 239.833 82.6 240.293 82.6C240.726 82.6 241.1 82.55 241.413 82.45C241.733 82.35 242.006 82.2433 242.233 82.13C242.466 82.01 242.66 81.9 242.813 81.8C242.973 81.7 243.113 81.65 243.233 81.65C243.393 81.65 243.516 81.71 243.603 81.83L244.163 82.55ZM248.409 69.24V84H246.449V69.24H248.409ZM264.083 71.98C264.016 72.0933 263.946 72.1767 263.873 72.23C263.799 72.2833 263.706 72.31 263.593 72.31C263.473 72.31 263.336 72.2567 263.183 72.15C263.029 72.0367 262.836 71.9133 262.603 71.78C262.376 71.64 262.103 71.5167 261.783 71.41C261.463 71.2967 261.079 71.24 260.633 71.24C260.213 71.24 259.843 71.2967 259.523 71.41C259.209 71.5167 258.946 71.6667 258.733 71.86C258.519 72.0467 258.356 72.27 258.243 72.53C258.136 72.7833 258.083 73.06 258.083 73.36C258.083 73.7467 258.179 74.0667 258.373 74.32C258.573 74.5733 258.833 74.79 259.153 74.97C259.473 75.15 259.836 75.3067 260.243 75.44C260.649 75.5733 261.066 75.7133 261.493 75.86C261.919 76 262.336 76.1633 262.743 76.35C263.149 76.5367 263.513 76.7733 263.833 77.06C264.153 77.34 264.409 77.6867 264.603 78.1C264.803 78.5067 264.903 79.0067 264.903 79.6C264.903 80.2333 264.793 80.8267 264.573 81.38C264.359 81.9333 264.046 82.4167 263.633 82.83C263.219 83.2433 262.709 83.57 262.103 83.81C261.503 84.0433 260.819 84.16 260.053 84.16C259.593 84.16 259.146 84.1133 258.713 84.02C258.279 83.9333 257.869 83.81 257.483 83.65C257.096 83.4833 256.733 83.2867 256.393 83.06C256.059 82.8267 255.759 82.5667 255.493 82.28L256.103 81.26C256.163 81.18 256.233 81.1133 256.313 81.06C256.399 81.0067 256.496 80.98 256.603 80.98C256.743 80.98 256.903 81.0533 257.083 81.2C257.269 81.3467 257.496 81.51 257.763 81.69C258.036 81.8633 258.359 82.0233 258.733 82.17C259.113 82.3167 259.573 82.39 260.113 82.39C260.553 82.39 260.946 82.3333 261.293 82.22C261.639 82.1 261.929 81.9333 262.163 81.72C262.403 81.5 262.586 81.2367 262.713 80.93C262.839 80.6233 262.903 80.2833 262.903 79.91C262.903 79.49 262.806 79.1467 262.613 78.88C262.419 78.6133 262.163 78.39 261.843 78.21C261.523 78.03 261.159 77.8767 260.753 77.75C260.346 77.6233 259.929 77.4933 259.503 77.36C259.076 77.22 258.659 77.06 258.253 76.88C257.846 76.7 257.483 76.4667 257.163 76.18C256.843 75.8867 256.586 75.5233 256.393 75.09C256.199 74.65 256.103 74.11 256.103 73.47C256.103 72.9567 256.203 72.46 256.403 71.98C256.603 71.5 256.893 71.0767 257.273 70.71C257.659 70.3367 258.133 70.04 258.693 69.82C259.253 69.5933 259.893 69.48 260.613 69.48C261.419 69.48 262.159 69.61 262.833 69.87C263.513 70.1233 264.103 70.49 264.603 70.97L264.083 71.98ZM272.455 79.49C271.662 79.5167 270.988 79.58 270.435 79.68C269.882 79.7733 269.432 79.9 269.085 80.06C268.738 80.22 268.488 80.41 268.335 80.63C268.182 80.8433 268.105 81.0833 268.105 81.35C268.105 81.6033 268.145 81.8233 268.225 82.01C268.312 82.19 268.425 82.34 268.565 82.46C268.712 82.5733 268.882 82.6567 269.075 82.71C269.268 82.7633 269.478 82.79 269.705 82.79C270.005 82.79 270.278 82.76 270.525 82.7C270.778 82.64 271.015 82.5567 271.235 82.45C271.455 82.3367 271.665 82.2 271.865 82.04C272.065 81.88 272.262 81.6967 272.455 81.49V79.49ZM266.735 75.26C267.302 74.72 267.915 74.3167 268.575 74.05C269.242 73.7833 269.972 73.65 270.765 73.65C271.345 73.65 271.858 73.7467 272.305 73.94C272.752 74.1267 273.128 74.39 273.435 74.73C273.742 75.07 273.972 75.4767 274.125 75.95C274.285 76.4233 274.365 76.9467 274.365 77.52V84H273.495C273.302 84 273.155 83.97 273.055 83.91C272.955 83.8433 272.875 83.7233 272.815 83.55L272.605 82.66C272.345 82.9 272.088 83.1133 271.835 83.3C271.582 83.48 271.315 83.6367 271.035 83.77C270.762 83.8967 270.468 83.9933 270.155 84.06C269.842 84.1267 269.495 84.16 269.115 84.16C268.715 84.16 268.338 84.1067 267.985 84C267.638 83.8867 267.335 83.7167 267.075 83.49C266.815 83.2633 266.608 82.98 266.455 82.64C266.308 82.3 266.235 81.9033 266.235 81.45C266.235 81.05 266.342 80.6667 266.555 80.3C266.775 79.9267 267.128 79.5933 267.615 79.3C268.108 79.0067 268.748 78.7667 269.535 78.58C270.328 78.3933 271.302 78.2867 272.455 78.26V77.52C272.455 76.7533 272.292 76.18 271.965 75.8C271.638 75.42 271.158 75.23 270.525 75.23C270.098 75.23 269.738 75.2833 269.445 75.39C269.158 75.4967 268.908 75.6167 268.695 75.75C268.488 75.8767 268.305 75.9933 268.145 76.1C267.992 76.2067 267.832 76.26 267.665 76.26C267.532 76.26 267.415 76.2233 267.315 76.15C267.222 76.0767 267.145 75.99 267.085 75.89L266.735 75.26ZM285.581 73.84L281.461 84H279.701L275.581 73.84H277.191C277.344 73.84 277.471 73.8767 277.571 73.95C277.671 74.0233 277.737 74.1167 277.771 74.23L280.201 80.47C280.287 80.73 280.361 80.99 280.421 81.25C280.487 81.5033 280.547 81.7567 280.601 82.01C280.654 81.7567 280.714 81.5033 280.781 81.25C280.847 80.9967 280.927 80.7367 281.021 80.47L283.481 74.23C283.521 74.1167 283.591 74.0233 283.691 73.95C283.791 73.8767 283.911 73.84 284.051 73.84H285.581ZM289.172 73.84V84H287.222V73.84H289.172ZM289.542 70.7C289.542 70.88 289.505 71.0533 289.432 71.22C289.358 71.38 289.258 71.5233 289.132 71.65C289.012 71.77 288.868 71.8667 288.702 71.94C288.535 72.0067 288.362 72.04 288.182 72.04C288.002 72.04 287.832 72.0067 287.672 71.94C287.512 71.8667 287.368 71.77 287.242 71.65C287.122 71.5233 287.025 71.38 286.952 71.22C286.885 71.0533 286.852 70.88 286.852 70.7C286.852 70.5133 286.885 70.34 286.952 70.18C287.025 70.0133 287.122 69.87 287.242 69.75C287.368 69.6233 287.512 69.5267 287.672 69.46C287.832 69.3867 288.002 69.35 288.182 69.35C288.362 69.35 288.535 69.3867 288.702 69.46C288.868 69.5267 289.012 69.6233 289.132 69.75C289.258 69.87 289.358 70.0133 289.432 70.18C289.505 70.34 289.542 70.5133 289.542 70.7ZM293.825 75.25C294.045 75.0167 294.275 74.8033 294.515 74.61C294.755 74.4167 295.008 74.2533 295.275 74.12C295.548 73.98 295.838 73.8733 296.145 73.8C296.458 73.72 296.792 73.68 297.145 73.68C297.705 73.68 298.195 73.7733 298.615 73.96C299.042 74.1467 299.398 74.41 299.685 74.75C299.972 75.0833 300.188 75.4867 300.335 75.96C300.482 76.4333 300.555 76.9567 300.555 77.53V84H298.595V77.53C298.595 76.8033 298.428 76.24 298.095 75.84C297.762 75.4333 297.252 75.23 296.565 75.23C296.065 75.23 295.595 75.35 295.155 75.59C294.722 75.8233 294.318 76.1433 293.945 76.55V84H291.995V73.84H293.165C293.438 73.84 293.608 73.97 293.675 74.23L293.825 75.25ZM306.756 78.93C307.103 78.93 307.406 78.8833 307.666 78.79C307.933 78.6967 308.153 78.5667 308.326 78.4C308.506 78.2267 308.64 78.02 308.726 77.78C308.82 77.54 308.866 77.2767 308.866 76.99C308.866 76.4033 308.686 75.9367 308.326 75.59C307.973 75.2367 307.45 75.06 306.756 75.06C306.07 75.06 305.546 75.2367 305.186 75.59C304.833 75.9367 304.656 76.4033 304.656 76.99C304.656 77.2767 304.7 77.54 304.786 77.78C304.88 78.0133 305.013 78.2167 305.186 78.39C305.366 78.5567 305.586 78.69 305.846 78.79C306.113 78.8833 306.416 78.93 306.756 78.93ZM309.866 84.53C309.866 84.29 309.8 84.1 309.666 83.96C309.533 83.8133 309.35 83.7 309.116 83.62C308.89 83.5333 308.623 83.4733 308.316 83.44C308.01 83.4 307.686 83.37 307.346 83.35C307.013 83.33 306.67 83.3133 306.316 83.3C305.963 83.28 305.623 83.2467 305.296 83.2C304.95 83.3733 304.663 83.5833 304.436 83.83C304.216 84.0767 304.106 84.3667 304.106 84.7C304.106 84.9133 304.16 85.1133 304.266 85.3C304.38 85.4867 304.55 85.6467 304.776 85.78C305.01 85.92 305.3 86.0267 305.646 86.1C306 86.18 306.42 86.22 306.906 86.22C307.386 86.22 307.81 86.1767 308.176 86.09C308.543 86.01 308.85 85.8933 309.096 85.74C309.35 85.5933 309.54 85.4167 309.666 85.21C309.8 85.0033 309.866 84.7767 309.866 84.53ZM311.846 74.22V74.95C311.846 75.19 311.696 75.34 311.396 75.4L310.306 75.56C310.4 75.7667 310.473 75.9867 310.526 76.22C310.58 76.4467 310.606 76.6867 310.606 76.94C310.606 77.44 310.51 77.8933 310.316 78.3C310.123 78.7 309.856 79.0433 309.516 79.33C309.176 79.6167 308.77 79.8367 308.296 79.99C307.83 80.1433 307.316 80.22 306.756 80.22C306.296 80.22 305.866 80.17 305.466 80.07C305.266 80.19 305.113 80.3233 305.006 80.47C304.906 80.61 304.856 80.75 304.856 80.89C304.856 81.1233 304.953 81.2967 305.146 81.41C305.346 81.5233 305.603 81.6067 305.916 81.66C306.236 81.7067 306.6 81.7367 307.006 81.75C307.42 81.7633 307.836 81.7867 308.256 81.82C308.683 81.8467 309.1 81.9 309.506 81.98C309.92 82.0533 310.283 82.1767 310.596 82.35C310.916 82.5167 311.173 82.75 311.366 83.05C311.566 83.3433 311.666 83.7267 311.666 84.2C311.666 84.64 311.556 85.0667 311.336 85.48C311.123 85.8933 310.81 86.26 310.396 86.58C309.983 86.9 309.48 87.1567 308.886 87.35C308.293 87.5433 307.62 87.64 306.866 87.64C306.113 87.64 305.456 87.5667 304.896 87.42C304.343 87.2733 303.88 87.0767 303.506 86.83C303.14 86.5833 302.863 86.2967 302.676 85.97C302.496 85.6433 302.406 85.3033 302.406 84.95C302.406 84.4567 302.56 84.04 302.866 83.7C303.173 83.3533 303.596 83.0833 304.136 82.89C303.843 82.7567 303.61 82.5767 303.436 82.35C303.263 82.1167 303.176 81.81 303.176 81.43C303.176 81.2833 303.203 81.1333 303.256 80.98C303.31 80.82 303.39 80.6633 303.496 80.51C303.61 80.35 303.746 80.2 303.906 80.06C304.073 79.92 304.263 79.7933 304.476 79.68C303.976 79.4 303.583 79.03 303.296 78.57C303.01 78.1033 302.866 77.56 302.866 76.94C302.866 76.44 302.963 75.99 303.156 75.59C303.35 75.19 303.616 74.8467 303.956 74.56C304.303 74.2733 304.713 74.0533 305.186 73.9C305.666 73.7467 306.19 73.67 306.756 73.67C307.636 73.67 308.393 73.8533 309.026 74.22H311.846ZM319.626 75.59C319.572 75.6767 319.516 75.74 319.456 75.78C319.396 75.8133 319.319 75.83 319.226 75.83C319.119 75.83 318.999 75.7933 318.866 75.72C318.739 75.6467 318.582 75.5667 318.396 75.48C318.216 75.3933 318.002 75.3133 317.756 75.24C317.509 75.1667 317.216 75.13 316.876 75.13C316.596 75.13 316.339 75.1667 316.106 75.24C315.879 75.3067 315.686 75.4033 315.526 75.53C315.366 75.65 315.242 75.7967 315.156 75.97C315.069 76.1367 315.026 76.3167 315.026 76.51C315.026 76.7633 315.099 76.9733 315.246 77.14C315.399 77.3067 315.596 77.45 315.836 77.57C316.082 77.69 316.359 77.8 316.666 77.9C316.979 77.9933 317.296 78.0933 317.616 78.2C317.942 78.3067 318.259 78.43 318.566 78.57C318.879 78.7033 319.156 78.8733 319.396 79.08C319.642 79.28 319.839 79.5233 319.986 79.81C320.139 80.0967 320.216 80.4467 320.216 80.86C320.216 81.3333 320.129 81.7733 319.956 82.18C319.789 82.58 319.539 82.9267 319.206 83.22C318.879 83.5133 318.472 83.7433 317.986 83.91C317.499 84.0767 316.942 84.16 316.316 84.16C315.616 84.16 314.969 84.0433 314.376 83.81C313.782 83.5767 313.286 83.28 312.886 82.92L313.346 82.17C313.399 82.0767 313.466 82.0067 313.546 81.96C313.626 81.9067 313.732 81.88 313.866 81.88C313.992 81.88 314.122 81.9267 314.256 82.02C314.389 82.1133 314.549 82.2167 314.736 82.33C314.922 82.4367 315.149 82.5367 315.416 82.63C315.682 82.7167 316.016 82.76 316.416 82.76C316.749 82.76 317.039 82.72 317.286 82.64C317.532 82.5533 317.736 82.44 317.896 82.3C318.062 82.1533 318.186 81.9867 318.266 81.8C318.346 81.6133 318.386 81.4167 318.386 81.21C318.386 80.9433 318.309 80.7233 318.156 80.55C318.009 80.37 317.812 80.2167 317.566 80.09C317.326 79.9633 317.049 79.8533 316.736 79.76C316.422 79.6667 316.102 79.5667 315.776 79.46C315.449 79.3533 315.129 79.23 314.816 79.09C314.502 78.95 314.222 78.7733 313.976 78.56C313.736 78.3467 313.539 78.0867 313.386 77.78C313.239 77.4733 313.166 77.1 313.166 76.66C313.166 76.2667 313.246 75.89 313.406 75.53C313.572 75.17 313.809 74.8533 314.116 74.58C314.429 74.3067 314.812 74.09 315.266 73.93C315.726 73.7633 316.249 73.68 316.836 73.68C317.509 73.68 318.116 73.7867 318.656 74C319.202 74.2133 319.669 74.5067 320.056 74.88L319.626 75.59Z" fill="black"/>
<line x1="166.35" y1="31" x2="166.35" y2="94" stroke="url(#paint1_linear_1335_3910)" stroke-width="0.7"/>
<g filter="url(#filter1_d_1335_3910)">
<circle cx="32" cy="63" r="25" fill="white"/>
<circle cx="32" cy="63" r="26" stroke="#ED1C24" stroke-width="2"/>
</g>
<path d="M29.99 63.493C29.99 64.627 29.867 65.614 29.621 66.454C29.381 67.288 29.045 67.978 28.613 68.524C28.187 69.07 27.68 69.478 27.092 69.748C26.51 70.012 25.88 70.144 25.202 70.144C24.524 70.144 23.894 70.012 23.312 69.748C22.736 69.478 22.235 69.07 21.809 68.524C21.383 67.978 21.05 67.288 20.81 66.454C20.57 65.614 20.45 64.627 20.45 63.493C20.45 62.353 20.57 61.366 20.81 60.532C21.05 59.698 21.383 59.008 21.809 58.462C22.235 57.916 22.736 57.511 23.312 57.247C23.894 56.977 24.524 56.842 25.202 56.842C25.88 56.842 26.51 56.977 27.092 57.247C27.68 57.511 28.187 57.916 28.613 58.462C29.045 59.008 29.381 59.698 29.621 60.532C29.867 61.366 29.99 62.353 29.99 63.493ZM27.695 63.493C27.695 62.551 27.626 61.771 27.488 61.153C27.35 60.535 27.164 60.043 26.93 59.677C26.702 59.311 26.438 59.056 26.138 58.912C25.838 58.762 25.526 58.687 25.202 58.687C24.884 58.687 24.575 58.762 24.275 58.912C23.981 59.056 23.72 59.311 23.492 59.677C23.264 60.043 23.081 60.535 22.943 61.153C22.811 61.771 22.745 62.551 22.745 63.493C22.745 64.435 22.811 65.215 22.943 65.833C23.081 66.451 23.264 66.943 23.492 67.309C23.72 67.675 23.981 67.933 24.275 68.083C24.575 68.227 24.884 68.299 25.202 68.299C25.526 68.299 25.838 68.227 26.138 68.083C26.438 67.933 26.702 67.675 26.93 67.309C27.164 66.943 27.35 66.451 27.488 65.833C27.626 65.215 27.695 64.435 27.695 63.493ZM39.7564 68.335V70H32.5564V68.335H35.1934V60.748C35.1934 60.448 35.2024 60.139 35.2204 59.821L33.3484 61.387C33.2404 61.471 33.1324 61.525 33.0244 61.549C32.9224 61.567 32.8234 61.567 32.7274 61.549C32.6374 61.531 32.5564 61.501 32.4844 61.459C32.4124 61.411 32.3584 61.36 32.3224 61.306L31.6204 60.343L35.5894 56.968H37.4164V68.335H39.7564Z" fill="#ED1C24"/>
</g>
<defs>
<filter id="filter0_d_1335_3910" x="-2" y="0" width="358" height="135.361" filterUnits="userSpaceOnUse" color-interpolation-filters="sRGB">
<feFlood flood-opacity="0" result="BackgroundImageFix"/>
<feColorMatrix in="SourceAlpha" type="matrix" values="0 0 0 0 0 0 0 0 0 0 0 0 0 0 0 0 0 0 127 0" result="hardAlpha"/>
<feOffset dx="2" dy="5"/>
<feGaussianBlur stdDeviation="2"/>
<feComposite in2="hardAlpha" operator="out"/>
<feColorMatrix type="matrix" values="0 0 0 0 0 0 0 0 0 0 0 0 0 0 0 0 0 0 0.2 0"/>
<feBlend mode="normal" in2="BackgroundImageFix" result="effect1_dropShadow_1335_3910"/>
<feBlend mode="normal" in="SourceGraphic" in2="effect1_dropShadow_1335_3910" result="shape"/>
</filter>
<filter id="filter1_d_1335_3910" x="1" y="36" width="62" height="62" filterUnits="userSpaceOnUse" color-interpolation-filters="sRGB">
<feFlood flood-opacity="0" result="BackgroundImageFix"/>
<feColorMatrix in="SourceAlpha" type="matrix" values="0 0 0 0 0 0 0 0 0 0 0 0 0 0 0 0 0 0 127 0" result="hardAlpha"/>
<feOffset dy="4"/>
<feGaussianBlur stdDeviation="2"/>
<feComposite in2="hardAlpha" operator="out"/>
<feColorMatrix type="matrix" values="0 0 0 0 0 0 0 0 0 0 0 0 0 0 0 0 0 0 0.25 0"/>
<feBlend mode="normal" in2="BackgroundImageFix" result="effect1_dropShadow_1335_3910"/>
<feBlend mode="normal" in="SourceGraphic" in2="effect1_dropShadow_1335_3910" result="shape"/>
</filter>
<linearGradient id="paint0_linear_1335_3910" x1="18.5893" y1="63" x2="367.348" y2="63" gradientUnits="userSpaceOnUse">
<stop stop-color="#ED1C24"/>
<stop offset="1" stop-color="#881418"/>
</linearGradient>
<linearGradient id="paint1_linear_1335_3910" x1="166" y1="31" x2="166" y2="96.5" gradientUnits="userSpaceOnUse">
<stop stop-color="#ED1C24"/>
<stop offset="1" stop-color="#881418"/>
</linearGradient>
</defs>
</svg>
