<svg width="356" height="135" viewBox="0 0 356 135" fill="none" xmlns="http://www.w3.org/2000/svg">
<g filter="url(#filter0_d_1335_3960)">
<path d="M55.7871 4.45922L18.8531 59.9501C16.5369 63.4301 16.6297 67.9836 19.0859 71.3663L55.7603 121.875C57.6417 124.467 60.6501 126 63.8522 126H340C345.523 126 350 121.523 350 116V10C350 4.47715 345.523 0 340 0H64.1118C60.7656 0 57.6412 1.67365 55.7871 4.45922Z" fill="url(#paint0_linear_1335_3960)"/>
<path d="M64.8797 18.7161L32.3027 59.0444C29.2399 62.8358 29.3567 68.283 32.5791 71.9397L64.8956 108.612C66.794 110.766 69.5268 112 72.3981 112H330C335.523 112 340 107.523 340 102V25C340 19.4772 335.523 15 330 15H72.6588C69.6375 15 66.7783 16.3659 64.8797 18.7161Z" fill="white"/>
<g filter="url(#filter1_d_1335_3960)">
<circle cx="32" cy="63" r="25" fill="white"/>
<circle cx="32" cy="63" r="26" stroke="#ED1C24" stroke-width="2"/>
</g>
<path d="M29.99 63.493C29.99 64.627 29.867 65.614 29.621 66.454C29.381 67.288 29.045 67.978 28.613 68.524C28.187 69.07 27.68 69.478 27.092 69.748C26.51 70.012 25.88 70.144 25.202 70.144C24.524 70.144 23.894 70.012 23.312 69.748C22.736 69.478 22.235 69.07 21.809 68.524C21.383 67.978 21.05 67.288 20.81 66.454C20.57 65.614 20.45 64.627 20.45 63.493C20.45 62.353 20.57 61.366 20.81 60.532C21.05 59.698 21.383 59.008 21.809 58.462C22.235 57.916 22.736 57.511 23.312 57.247C23.894 56.977 24.524 56.842 25.202 56.842C25.88 56.842 26.51 56.977 27.092 57.247C27.68 57.511 28.187 57.916 28.613 58.462C29.045 59.008 29.381 59.698 29.621 60.532C29.867 61.366 29.99 62.353 29.99 63.493ZM27.695 63.493C27.695 62.551 27.626 61.771 27.488 61.153C27.35 60.535 27.164 60.043 26.93 59.677C26.702 59.311 26.438 59.056 26.138 58.912C25.838 58.762 25.526 58.687 25.202 58.687C24.884 58.687 24.575 58.762 24.275 58.912C23.981 59.056 23.72 59.311 23.492 59.677C23.264 60.043 23.081 60.535 22.943 61.153C22.811 61.771 22.745 62.551 22.745 63.493C22.745 64.435 22.811 65.215 22.943 65.833C23.081 66.451 23.264 66.943 23.492 67.309C23.72 67.675 23.981 67.933 24.275 68.083C24.575 68.227 24.884 68.299 25.202 68.299C25.526 68.299 25.838 68.227 26.138 68.083C26.438 67.933 26.702 67.675 26.93 67.309C27.164 66.943 27.35 66.451 27.488 65.833C27.626 65.215 27.695 64.435 27.695 63.493ZM39.2704 67.93C39.5104 67.93 39.6994 67.999 39.8374 68.137C39.9814 68.269 40.0534 68.446 40.0534 68.668V70H31.1254V69.262C31.1254 69.112 31.1554 68.956 31.2154 68.794C31.2814 68.626 31.3834 68.476 31.5214 68.344L35.4724 64.384C35.8024 64.048 36.0964 63.727 36.3544 63.421C36.6184 63.115 36.8374 62.812 37.0114 62.512C37.1854 62.212 37.3174 61.909 37.4074 61.603C37.5034 61.291 37.5514 60.964 37.5514 60.622C37.5514 60.31 37.5064 60.037 37.4164 59.803C37.3264 59.563 37.1974 59.362 37.0294 59.2C36.8674 59.038 36.6694 58.918 36.4354 58.84C36.2074 58.756 35.9494 58.714 35.6614 58.714C35.3974 58.714 35.1514 58.753 34.9234 58.831C34.7014 58.903 34.5034 59.008 34.3294 59.146C34.1554 59.278 34.0084 59.434 33.8884 59.614C33.7684 59.794 33.6784 59.992 33.6184 60.208C33.5164 60.484 33.3844 60.667 33.2224 60.757C33.0604 60.847 32.8264 60.868 32.5204 60.82L31.3504 60.613C31.4404 59.989 31.6144 59.443 31.8724 58.975C32.1304 58.501 32.4514 58.108 32.8354 57.796C33.2254 57.478 33.6694 57.241 34.1674 57.085C34.6714 56.923 35.2114 56.842 35.7874 56.842C36.3874 56.842 36.9364 56.932 37.4344 57.112C37.9324 57.286 38.3584 57.535 38.7124 57.859C39.0664 58.183 39.3424 58.573 39.5404 59.029C39.7384 59.485 39.8374 59.992 39.8374 60.55C39.8374 61.03 39.7654 61.474 39.6214 61.882C39.4834 62.29 39.2944 62.68 39.0544 63.052C38.8204 63.424 38.5444 63.784 38.2264 64.132C37.9084 64.48 37.5754 64.834 37.2274 65.194L34.2934 68.191C34.5754 68.107 34.8544 68.044 35.1304 68.002C35.4124 67.954 35.6794 67.93 35.9314 67.93H39.2704Z" fill="#ED1C24"/>
<path d="M189.06 53H186.71V38.6H189.06V53ZM193.925 44.15C194.145 43.9233 194.372 43.72 194.605 43.54C194.845 43.3533 195.099 43.1933 195.365 43.06C195.632 42.9267 195.915 42.8233 196.215 42.75C196.515 42.6767 196.842 42.64 197.195 42.64C197.755 42.64 198.245 42.7333 198.665 42.92C199.092 43.1067 199.449 43.37 199.735 43.71C200.029 44.05 200.249 44.46 200.395 44.94C200.542 45.4133 200.615 45.9367 200.615 46.51V53H198.475V46.51C198.475 45.8233 198.315 45.29 197.995 44.91C197.682 44.53 197.202 44.34 196.555 44.34C196.075 44.34 195.629 44.45 195.215 44.67C194.809 44.89 194.425 45.19 194.065 45.57V53H191.915V42.8H193.215C193.509 42.8 193.695 42.9367 193.775 43.21L193.925 44.15ZM210.336 44.8C210.27 44.8867 210.206 44.9533 210.146 45C210.086 45.0467 210 45.07 209.886 45.07C209.773 45.07 209.653 45.03 209.526 44.95C209.406 44.87 209.26 44.7833 209.086 44.69C208.92 44.59 208.716 44.5 208.476 44.42C208.236 44.34 207.936 44.3 207.576 44.3C207.11 44.3 206.7 44.3833 206.346 44.55C206 44.7167 205.706 44.9567 205.466 45.27C205.233 45.5767 205.056 45.9533 204.936 46.4C204.823 46.84 204.766 47.3367 204.766 47.89C204.766 48.4633 204.83 48.9733 204.956 49.42C205.083 49.8667 205.263 50.2433 205.496 50.55C205.736 50.8567 206.023 51.09 206.356 51.25C206.696 51.41 207.076 51.49 207.496 51.49C207.91 51.49 208.246 51.44 208.506 51.34C208.766 51.24 208.983 51.13 209.156 51.01C209.33 50.89 209.476 50.78 209.596 50.68C209.723 50.58 209.856 50.53 209.996 50.53C210.17 50.53 210.303 50.5967 210.396 50.73L211.006 51.52C210.76 51.82 210.486 52.0733 210.186 52.28C209.886 52.4867 209.57 52.6567 209.236 52.79C208.903 52.9167 208.556 53.0067 208.196 53.06C207.836 53.12 207.473 53.15 207.106 53.15C206.473 53.15 205.88 53.0333 205.326 52.8C204.78 52.56 204.3 52.2167 203.886 51.77C203.48 51.3167 203.156 50.7667 202.916 50.12C202.683 49.4667 202.566 48.7233 202.566 47.89C202.566 47.1367 202.673 46.44 202.886 45.8C203.1 45.1533 203.41 44.5967 203.816 44.13C204.23 43.6633 204.74 43.3 205.346 43.04C205.953 42.7733 206.653 42.64 207.446 42.64C208.186 42.64 208.836 42.76 209.396 43C209.963 43.24 210.466 43.58 210.906 44.02L210.336 44.8ZM214.766 44.69C215.086 44.0433 215.472 43.5367 215.926 43.17C216.379 42.7967 216.922 42.61 217.556 42.61C217.776 42.61 217.982 42.6367 218.176 42.69C218.369 42.7367 218.542 42.81 218.696 42.91L218.546 44.53C218.519 44.6433 218.476 44.7233 218.416 44.77C218.362 44.81 218.289 44.83 218.196 44.83C218.096 44.83 217.952 44.8133 217.766 44.78C217.579 44.74 217.382 44.72 217.176 44.72C216.876 44.72 216.609 44.7633 216.376 44.85C216.149 44.9367 215.942 45.0633 215.756 45.23C215.576 45.3967 215.416 45.6 215.276 45.84C215.136 46.08 215.006 46.3533 214.886 46.66V53H212.736V42.8H213.986C214.212 42.8 214.369 42.8433 214.456 42.93C214.542 43.01 214.602 43.1533 214.636 43.36L214.766 44.69ZM226.457 46.75C226.457 46.39 226.404 46.0567 226.297 45.75C226.197 45.4367 226.047 45.1667 225.847 44.94C225.647 44.7067 225.397 44.5267 225.097 44.4C224.804 44.2667 224.464 44.2 224.077 44.2C223.297 44.2 222.684 44.4233 222.237 44.87C221.79 45.3167 221.507 45.9433 221.387 46.75H226.457ZM221.327 48.07C221.354 48.65 221.444 49.1533 221.597 49.58C221.75 50 221.954 50.35 222.207 50.63C222.467 50.91 222.774 51.12 223.127 51.26C223.487 51.3933 223.887 51.46 224.327 51.46C224.747 51.46 225.11 51.4133 225.417 51.32C225.724 51.22 225.99 51.1133 226.217 51C226.444 50.88 226.637 50.7733 226.797 50.68C226.957 50.58 227.104 50.53 227.237 50.53C227.41 50.53 227.544 50.5967 227.637 50.73L228.247 51.52C227.994 51.82 227.707 52.0733 227.387 52.28C227.067 52.4867 226.727 52.6567 226.367 52.79C226.007 52.9167 225.637 53.0067 225.257 53.06C224.877 53.12 224.507 53.15 224.147 53.15C223.44 53.15 222.784 53.0333 222.177 52.8C221.577 52.56 221.054 52.21 220.607 51.75C220.167 51.29 219.82 50.72 219.567 50.04C219.32 49.36 219.197 48.5767 219.197 47.69C219.197 46.9833 219.307 46.3233 219.527 45.71C219.754 45.0967 220.074 44.5633 220.487 44.11C220.907 43.6567 221.414 43.3 222.007 43.04C222.607 42.7733 223.284 42.64 224.037 42.64C224.664 42.64 225.244 42.7433 225.777 42.95C226.31 43.15 226.77 43.4467 227.157 43.84C227.544 44.2333 227.844 44.7167 228.057 45.29C228.277 45.8567 228.387 46.5033 228.387 47.23C228.387 47.5633 228.35 47.7867 228.277 47.9C228.204 48.0133 228.07 48.07 227.877 48.07H221.327ZM235.842 48.54C235.075 48.5667 234.429 48.63 233.902 48.73C233.375 48.8233 232.949 48.9467 232.622 49.1C232.295 49.2467 232.059 49.4233 231.912 49.63C231.772 49.8367 231.702 50.0633 231.702 50.31C231.702 50.55 231.739 50.7567 231.812 50.93C231.892 51.0967 231.999 51.2367 232.132 51.35C232.272 51.4567 232.432 51.5367 232.612 51.59C232.799 51.6367 233.002 51.66 233.222 51.66C233.782 51.66 234.262 51.5567 234.662 51.35C235.069 51.1367 235.462 50.83 235.842 50.43V48.54ZM230.142 44.22C231.295 43.1467 232.669 42.61 234.262 42.61C234.849 42.61 235.369 42.7067 235.822 42.9C236.282 43.0867 236.665 43.3533 236.972 43.7C237.285 44.0467 237.522 44.46 237.682 44.94C237.849 45.4133 237.932 45.94 237.932 46.52V53H236.972C236.765 53 236.609 52.97 236.502 52.91C236.395 52.8433 236.305 52.7133 236.232 52.52L236.022 51.69C235.762 51.9233 235.505 52.1333 235.252 52.32C234.999 52.5 234.735 52.6533 234.462 52.78C234.195 52.9067 233.905 53 233.592 53.06C233.285 53.1267 232.945 53.16 232.572 53.16C232.159 53.16 231.772 53.1033 231.412 52.99C231.059 52.8767 230.752 52.7067 230.492 52.48C230.232 52.2467 230.025 51.96 229.872 51.62C229.725 51.28 229.652 50.88 229.652 50.42C229.652 50.0267 229.755 49.6433 229.962 49.27C230.175 48.8967 230.522 48.5633 231.002 48.27C231.489 47.97 232.125 47.7233 232.912 47.53C233.705 47.3367 234.682 47.2267 235.842 47.2V46.52C235.842 45.7867 235.685 45.24 235.372 44.88C235.059 44.52 234.599 44.34 233.992 44.34C233.579 44.34 233.232 44.3933 232.952 44.5C232.672 44.6 232.429 44.71 232.222 44.83C232.015 44.95 231.832 45.0633 231.672 45.17C231.512 45.27 231.342 45.32 231.162 45.32C231.015 45.32 230.889 45.2833 230.782 45.21C230.682 45.13 230.599 45.0333 230.532 44.92L230.142 44.22ZM246.541 44.65C246.487 44.7433 246.427 44.81 246.361 44.85C246.294 44.89 246.211 44.91 246.111 44.91C245.997 44.91 245.874 44.8767 245.741 44.81C245.607 44.7367 245.451 44.6567 245.271 44.57C245.091 44.4833 244.877 44.4067 244.631 44.34C244.391 44.2667 244.107 44.23 243.781 44.23C243.514 44.23 243.271 44.2633 243.051 44.33C242.837 44.39 242.654 44.48 242.501 44.6C242.354 44.7133 242.241 44.85 242.161 45.01C242.081 45.1633 242.041 45.33 242.041 45.51C242.041 45.75 242.114 45.95 242.261 46.11C242.407 46.27 242.601 46.41 242.841 46.53C243.081 46.6433 243.354 46.7467 243.661 46.84C243.967 46.9333 244.281 47.0333 244.601 47.14C244.921 47.2467 245.234 47.37 245.541 47.51C245.847 47.65 246.121 47.8233 246.361 48.03C246.601 48.23 246.794 48.4767 246.941 48.77C247.087 49.0567 247.161 49.4067 247.161 49.82C247.161 50.3 247.074 50.7433 246.901 51.15C246.727 51.5567 246.474 51.91 246.141 52.21C245.807 52.51 245.391 52.7433 244.891 52.91C244.397 53.0767 243.831 53.16 243.191 53.16C242.837 53.16 242.494 53.1267 242.161 53.06C241.834 53 241.521 52.9167 241.221 52.81C240.927 52.6967 240.651 52.5633 240.391 52.41C240.137 52.2567 239.911 52.09 239.711 51.91L240.211 51.09C240.271 50.99 240.344 50.9133 240.431 50.86C240.524 50.8 240.637 50.77 240.771 50.77C240.911 50.77 241.047 50.8167 241.181 50.91C241.321 50.9967 241.481 51.0933 241.661 51.2C241.847 51.3067 242.071 51.4067 242.331 51.5C242.591 51.5867 242.914 51.63 243.301 51.63C243.621 51.63 243.897 51.5933 244.131 51.52C244.364 51.44 244.557 51.3333 244.711 51.2C244.864 51.0667 244.977 50.9167 245.051 50.75C245.124 50.5767 245.161 50.3933 245.161 50.2C245.161 49.94 245.087 49.7267 244.941 49.56C244.794 49.3933 244.597 49.25 244.351 49.13C244.111 49.01 243.834 48.9033 243.521 48.81C243.214 48.7167 242.901 48.6167 242.581 48.51C242.261 48.4033 241.944 48.28 241.631 48.14C241.324 48 241.047 47.8233 240.801 47.61C240.561 47.39 240.367 47.1267 240.221 46.82C240.074 46.5067 240.001 46.1267 240.001 45.68C240.001 45.2733 240.081 44.8867 240.241 44.52C240.407 44.1533 240.647 43.83 240.961 43.55C241.281 43.27 241.671 43.05 242.131 42.89C242.597 42.7233 243.134 42.64 243.741 42.64C244.427 42.64 245.051 42.75 245.611 42.97C246.171 43.19 246.641 43.49 247.021 43.87L246.541 44.65ZM255.871 46.75C255.871 46.39 255.818 46.0567 255.711 45.75C255.611 45.4367 255.461 45.1667 255.261 44.94C255.061 44.7067 254.811 44.5267 254.511 44.4C254.218 44.2667 253.878 44.2 253.491 44.2C252.711 44.2 252.098 44.4233 251.651 44.87C251.204 45.3167 250.921 45.9433 250.801 46.75H255.871ZM250.741 48.07C250.768 48.65 250.858 49.1533 251.011 49.58C251.164 50 251.368 50.35 251.621 50.63C251.881 50.91 252.188 51.12 252.541 51.26C252.901 51.3933 253.301 51.46 253.741 51.46C254.161 51.46 254.524 51.4133 254.831 51.32C255.138 51.22 255.404 51.1133 255.631 51C255.858 50.88 256.051 50.7733 256.211 50.68C256.371 50.58 256.518 50.53 256.651 50.53C256.824 50.53 256.958 50.5967 257.051 50.73L257.661 51.52C257.408 51.82 257.121 52.0733 256.801 52.28C256.481 52.4867 256.141 52.6567 255.781 52.79C255.421 52.9167 255.051 53.0067 254.671 53.06C254.291 53.12 253.921 53.15 253.561 53.15C252.854 53.15 252.198 53.0333 251.591 52.8C250.991 52.56 250.468 52.21 250.021 51.75C249.581 51.29 249.234 50.72 248.981 50.04C248.734 49.36 248.611 48.5767 248.611 47.69C248.611 46.9833 248.721 46.3233 248.941 45.71C249.168 45.0967 249.488 44.5633 249.901 44.11C250.321 43.6567 250.828 43.3 251.421 43.04C252.021 42.7733 252.698 42.64 253.451 42.64C254.078 42.64 254.658 42.7433 255.191 42.95C255.724 43.15 256.184 43.4467 256.571 43.84C256.958 44.2333 257.258 44.7167 257.471 45.29C257.691 45.8567 257.801 46.5033 257.801 47.23C257.801 47.5633 257.764 47.7867 257.691 47.9C257.618 48.0133 257.484 48.07 257.291 48.07H250.741Z" fill="#881418"/>
<path d="M202.03 69.6V84H199.97V74.13C199.97 73.97 199.973 73.7967 199.98 73.61C199.993 73.4167 200.01 73.2233 200.03 73.03L195.4 81.58C195.22 81.9333 194.943 82.11 194.57 82.11H194.24C193.86 82.11 193.583 81.9333 193.41 81.58L188.71 73.01C188.73 73.2033 188.743 73.3967 188.75 73.59C188.763 73.7833 188.77 73.9633 188.77 74.13V84H186.71V69.6H188.46C188.667 69.6 188.827 69.62 188.94 69.66C189.053 69.6933 189.157 69.8033 189.25 69.99L193.87 78.36C193.97 78.5533 194.063 78.7533 194.15 78.96C194.243 79.16 194.327 79.3667 194.4 79.58C194.48 79.3667 194.563 79.1567 194.65 78.95C194.743 78.7367 194.84 78.5333 194.94 78.34L199.49 69.99C199.583 69.8033 199.687 69.6933 199.8 69.66C199.913 69.62 200.073 69.6 200.28 69.6H202.03ZM207.124 73.8V84H204.974V73.8H207.124ZM207.484 70.72C207.484 70.9133 207.444 71.0967 207.364 71.27C207.291 71.4433 207.188 71.5967 207.054 71.73C206.921 71.8567 206.764 71.96 206.584 72.04C206.411 72.1133 206.224 72.15 206.024 72.15C205.831 72.15 205.648 72.1133 205.474 72.04C205.308 71.96 205.161 71.8567 205.034 71.73C204.908 71.5967 204.804 71.4433 204.724 71.27C204.651 71.0967 204.614 70.9133 204.614 70.72C204.614 70.52 204.651 70.3333 204.724 70.16C204.804 69.9867 204.908 69.8367 205.034 69.71C205.161 69.5767 205.308 69.4733 205.474 69.4C205.648 69.32 205.831 69.28 206.024 69.28C206.224 69.28 206.411 69.32 206.584 69.4C206.764 69.4733 206.921 69.5767 207.054 69.71C207.188 69.8367 207.291 69.9867 207.364 70.16C207.444 70.3333 207.484 70.52 207.484 70.72ZM212.016 69.2V84H209.866V69.2H212.016ZM221.359 77.75C221.359 77.39 221.306 77.0567 221.199 76.75C221.099 76.4367 220.949 76.1667 220.749 75.94C220.549 75.7067 220.299 75.5267 219.999 75.4C219.706 75.2667 219.366 75.2 218.979 75.2C218.199 75.2 217.586 75.4233 217.139 75.87C216.693 76.3167 216.409 76.9433 216.289 77.75H221.359ZM216.229 79.07C216.256 79.65 216.346 80.1533 216.499 80.58C216.653 81 216.856 81.35 217.109 81.63C217.369 81.91 217.676 82.12 218.029 82.26C218.389 82.3933 218.789 82.46 219.229 82.46C219.649 82.46 220.013 82.4133 220.319 82.32C220.626 82.22 220.893 82.1133 221.119 82C221.346 81.88 221.539 81.7733 221.699 81.68C221.859 81.58 222.006 81.53 222.139 81.53C222.313 81.53 222.446 81.5967 222.539 81.73L223.149 82.52C222.896 82.82 222.609 83.0733 222.289 83.28C221.969 83.4867 221.629 83.6567 221.269 83.79C220.909 83.9167 220.539 84.0067 220.159 84.06C219.779 84.12 219.409 84.15 219.049 84.15C218.343 84.15 217.686 84.0333 217.079 83.8C216.479 83.56 215.956 83.21 215.509 82.75C215.069 82.29 214.723 81.72 214.469 81.04C214.223 80.36 214.099 79.5767 214.099 78.69C214.099 77.9833 214.209 77.3233 214.429 76.71C214.656 76.0967 214.976 75.5633 215.389 75.11C215.809 74.6567 216.316 74.3 216.909 74.04C217.509 73.7733 218.186 73.64 218.939 73.64C219.566 73.64 220.146 73.7433 220.679 73.95C221.213 74.15 221.673 74.4467 222.059 74.84C222.446 75.2333 222.746 75.7167 222.959 76.29C223.179 76.8567 223.289 77.5033 223.289 78.23C223.289 78.5633 223.253 78.7867 223.179 78.9C223.106 79.0133 222.973 79.07 222.779 79.07H216.229ZM230.744 79.54C229.978 79.5667 229.331 79.63 228.804 79.73C228.278 79.8233 227.851 79.9467 227.524 80.1C227.198 80.2467 226.961 80.4233 226.814 80.63C226.674 80.8367 226.604 81.0633 226.604 81.31C226.604 81.55 226.641 81.7567 226.714 81.93C226.794 82.0967 226.901 82.2367 227.034 82.35C227.174 82.4567 227.334 82.5367 227.514 82.59C227.701 82.6367 227.904 82.66 228.124 82.66C228.684 82.66 229.164 82.5567 229.564 82.35C229.971 82.1367 230.364 81.83 230.744 81.43V79.54ZM225.044 75.22C226.198 74.1467 227.571 73.61 229.164 73.61C229.751 73.61 230.271 73.7067 230.724 73.9C231.184 74.0867 231.568 74.3533 231.874 74.7C232.188 75.0467 232.424 75.46 232.584 75.94C232.751 76.4133 232.834 76.94 232.834 77.52V84H231.874C231.668 84 231.511 83.97 231.404 83.91C231.298 83.8433 231.208 83.7133 231.134 83.52L230.924 82.69C230.664 82.9233 230.408 83.1333 230.154 83.32C229.901 83.5 229.638 83.6533 229.364 83.78C229.098 83.9067 228.808 84 228.494 84.06C228.188 84.1267 227.848 84.16 227.474 84.16C227.061 84.16 226.674 84.1033 226.314 83.99C225.961 83.8767 225.654 83.7067 225.394 83.48C225.134 83.2467 224.928 82.96 224.774 82.62C224.628 82.28 224.554 81.88 224.554 81.42C224.554 81.0267 224.658 80.6433 224.864 80.27C225.078 79.8967 225.424 79.5633 225.904 79.27C226.391 78.97 227.028 78.7233 227.814 78.53C228.608 78.3367 229.584 78.2267 230.744 78.2V77.52C230.744 76.7867 230.588 76.24 230.274 75.88C229.961 75.52 229.501 75.34 228.894 75.34C228.481 75.34 228.134 75.3933 227.854 75.5C227.574 75.6 227.331 75.71 227.124 75.83C226.918 75.95 226.734 76.0633 226.574 76.17C226.414 76.27 226.244 76.32 226.064 76.32C225.918 76.32 225.791 76.2833 225.684 76.21C225.584 76.13 225.501 76.0333 225.434 75.92L225.044 75.22ZM238.993 78.81C239.66 78.81 240.16 78.64 240.493 78.3C240.826 77.96 240.993 77.5167 240.993 76.97C240.993 76.41 240.826 75.9667 240.493 75.64C240.16 75.3133 239.66 75.15 238.993 75.15C238.333 75.15 237.833 75.3133 237.493 75.64C237.16 75.9667 236.993 76.41 236.993 76.97C236.993 77.2367 237.036 77.4833 237.123 77.71C237.21 77.9367 237.336 78.1333 237.503 78.3C237.67 78.46 237.876 78.5867 238.123 78.68C238.376 78.7667 238.666 78.81 238.993 78.81ZM241.983 84.5C241.983 84.2733 241.916 84.0933 241.783 83.96C241.656 83.82 241.483 83.7133 241.263 83.64C241.043 83.56 240.786 83.5033 240.493 83.47C240.2 83.43 239.886 83.4033 239.553 83.39C239.226 83.37 238.89 83.3533 238.543 83.34C238.203 83.32 237.873 83.2867 237.553 83.24C237.233 83.4067 236.97 83.6067 236.763 83.84C236.563 84.0733 236.463 84.3433 236.463 84.65C236.463 84.85 236.513 85.0367 236.613 85.21C236.72 85.3833 236.88 85.5333 237.093 85.66C237.313 85.7867 237.59 85.8867 237.923 85.96C238.263 86.0333 238.67 86.07 239.143 86.07C240.09 86.07 240.8 85.9233 241.273 85.63C241.746 85.3367 241.983 84.96 241.983 84.5ZM244.143 74.17V74.97C244.143 75.2367 243.983 75.4 243.663 75.46L242.643 75.63C242.816 76.0167 242.903 76.4467 242.903 76.92C242.903 77.42 242.803 77.8733 242.603 78.28C242.41 78.6867 242.14 79.0333 241.793 79.32C241.446 79.6067 241.033 79.8267 240.553 79.98C240.073 80.1333 239.553 80.21 238.993 80.21C238.78 80.21 238.57 80.2 238.363 80.18C238.163 80.1533 237.966 80.12 237.773 80.08C237.58 80.1933 237.436 80.3133 237.343 80.44C237.25 80.5667 237.203 80.6967 237.203 80.83C237.203 81.05 237.3 81.2133 237.493 81.32C237.686 81.4267 237.94 81.5033 238.253 81.55C238.573 81.5967 238.936 81.6267 239.343 81.64C239.75 81.6533 240.163 81.6767 240.583 81.71C241.003 81.7433 241.416 81.8 241.823 81.88C242.23 81.9533 242.59 82.08 242.903 82.26C243.223 82.4333 243.48 82.67 243.673 82.97C243.866 83.27 243.963 83.66 243.963 84.14C243.963 84.58 243.853 85.01 243.633 85.43C243.413 85.85 243.093 86.2233 242.673 86.55C242.26 86.8767 241.753 87.1367 241.153 87.33C240.553 87.53 239.87 87.63 239.103 87.63C238.343 87.63 237.68 87.5567 237.113 87.41C236.553 87.2633 236.083 87.0633 235.703 86.81C235.33 86.5633 235.05 86.2767 234.863 85.95C234.683 85.6233 234.593 85.2833 234.593 84.93C234.593 84.45 234.743 84.04 235.043 83.7C235.35 83.36 235.763 83.0933 236.283 82.9C236.003 82.7667 235.776 82.5833 235.603 82.35C235.436 82.1167 235.353 81.81 235.353 81.43C235.353 81.13 235.463 80.8167 235.683 80.49C235.903 80.1633 236.233 79.8867 236.673 79.66C236.166 79.38 235.766 79.01 235.473 78.55C235.18 78.0833 235.033 77.54 235.033 76.92C235.033 76.4133 235.13 75.9567 235.323 75.55C235.523 75.1433 235.8 74.7967 236.153 74.51C236.506 74.2233 236.923 74.0033 237.403 73.85C237.89 73.6967 238.42 73.62 238.993 73.62C239.873 73.62 240.64 73.8033 241.293 74.17H244.143ZM252.355 77.75C252.355 77.39 252.302 77.0567 252.195 76.75C252.095 76.4367 251.945 76.1667 251.745 75.94C251.545 75.7067 251.295 75.5267 250.995 75.4C250.702 75.2667 250.362 75.2 249.975 75.2C249.195 75.2 248.582 75.4233 248.135 75.87C247.689 76.3167 247.405 76.9433 247.285 77.75H252.355ZM247.225 79.07C247.252 79.65 247.342 80.1533 247.495 80.58C247.649 81 247.852 81.35 248.105 81.63C248.365 81.91 248.672 82.12 249.025 82.26C249.385 82.3933 249.785 82.46 250.225 82.46C250.645 82.46 251.009 82.4133 251.315 82.32C251.622 82.22 251.889 82.1133 252.115 82C252.342 81.88 252.535 81.7733 252.695 81.68C252.855 81.58 253.002 81.53 253.135 81.53C253.309 81.53 253.442 81.5967 253.535 81.73L254.145 82.52C253.892 82.82 253.605 83.0733 253.285 83.28C252.965 83.4867 252.625 83.6567 252.265 83.79C251.905 83.9167 251.535 84.0067 251.155 84.06C250.775 84.12 250.405 84.15 250.045 84.15C249.339 84.15 248.682 84.0333 248.075 83.8C247.475 83.56 246.952 83.21 246.505 82.75C246.065 82.29 245.719 81.72 245.465 81.04C245.219 80.36 245.095 79.5767 245.095 78.69C245.095 77.9833 245.205 77.3233 245.425 76.71C245.652 76.0967 245.972 75.5633 246.385 75.11C246.805 74.6567 247.312 74.3 247.905 74.04C248.505 73.7733 249.182 73.64 249.935 73.64C250.562 73.64 251.142 73.7433 251.675 73.95C252.209 74.15 252.669 74.4467 253.055 74.84C253.442 75.2333 253.742 75.7167 253.955 76.29C254.175 76.8567 254.285 77.5033 254.285 78.23C254.285 78.5633 254.249 78.7867 254.175 78.9C254.102 79.0133 253.969 79.07 253.775 79.07H247.225Z" fill="black"/>
<line x1="166.35" y1="31" x2="166.35" y2="94" stroke="url(#paint1_linear_1335_3960)" stroke-width="0.7"/>
<path d="M80.5034 86.5C80.7667 67.0453 96.3742 51.3164 115.5 51.3164C134.626 51.3164 150.233 67.0453 150.497 86.5H147.62C147.357 68.6892 133.058 54.2671 115.5 54.2671C97.9406 54.2671 83.6429 68.6886 83.3798 86.5H80.5034Z" stroke="#881418"/>
<path d="M87.5559 86.9404H91.432C91.432 86.3325 91.4541 85.7167 91.4977 85.1094L87.6313 84.822C87.5806 85.5246 87.5559 86.2378 87.5559 86.9404Z" fill="#881418"/>
<path d="M110.151 59.4903C111.099 59.2995 112.064 59.1589 113.03 59.0707L113.235 62.0144C112.406 62.0919 111.578 62.2124 110.763 62.3743L110.151 59.4903Z" stroke="#881418"/>
<path d="M100.408 67.1879C99.7499 67.7103 99.115 68.2697 98.5118 68.8578L96.4741 66.7744C97.1741 66.0881 97.9126 65.4364 98.6782 64.8297L100.408 67.1879Z" stroke="#881418"/>
<path d="M106.455 63.6606C105.683 63.9725 104.922 64.3267 104.184 64.7175L102.797 62.1308C103.657 61.6727 104.544 61.2595 105.445 60.8977L106.455 63.6606Z" stroke="#881418"/>
<path d="M93.264 70.5372L95.568 72.3039C95.0776 72.996 94.6202 73.716 94.2021 74.4538L91.6781 73.0381C92.1616 72.1789 92.6931 71.341 93.264 70.5372Z" stroke="#881418"/>
<path d="M92.3288 78.5986C92.0501 79.4032 91.8106 80.2267 91.6139 81.0572L88.8037 80.4279C89.0299 79.4608 89.3082 78.5018 89.6347 77.5657L92.3288 78.5986Z" stroke="#881418"/>
<path d="M139.377 81.0214C139.179 80.1915 138.939 79.3691 138.659 78.5658L141.353 77.529C141.68 78.4628 141.959 79.4207 142.186 80.3871L139.377 81.0214Z" stroke="#881418"/>
<path d="M136.782 74.4263C136.363 73.6887 135.905 72.9697 135.415 72.2794L137.718 70.5101C138.288 71.3115 138.82 72.1482 139.304 73.0067L136.782 74.4263Z" stroke="#881418"/>
<path d="M117.93 59.0678C118.897 59.1542 119.862 59.2933 120.81 59.483L120.201 62.3676C119.387 62.2071 118.559 62.0877 117.729 62.0115L117.93 59.0678Z" stroke="#881418"/>
<path d="M132.468 68.838C131.863 68.2497 131.227 67.691 130.569 67.1695L132.297 64.8096C133.063 65.4149 133.802 66.0654 134.504 66.7515L132.468 68.838Z" stroke="#881418"/>
<path d="M125.52 60.883C126.423 61.244 127.311 61.6567 128.173 62.1142L126.79 64.7026C126.05 64.3118 125.288 63.9583 124.514 63.6472L125.52 60.883Z" stroke="#881418"/>
<path d="M143.368 84.822L139.502 85.1094C139.545 85.7167 139.567 86.3325 139.567 86.9404H143.443C143.444 86.2378 143.419 85.5246 143.368 84.822Z" fill="#881418"/>
<path d="M114.062 48.2399V44.9402H116.938V48.2399H114.062Z" stroke="#881418"/>
<path d="M108.881 42.4507V39.5H122.118V42.4507H108.881Z" stroke="#881418"/>
<path d="M117.247 84.8829L117.178 84.8131L117.089 84.7743L114.27 83.5532L113.856 83.132L136.726 59.8221L139.576 62.7275L117.543 85.1845L117.247 84.8829Z" fill="#ED1C24" stroke="#881418"/>
<path d="M137.082 59.6619L136.725 59.2981L136.369 59.6619L136.073 59.9632L136.423 60.307L136.073 59.9632L114.817 81.6277L113.685 82.7817L113.342 83.1319L113.685 83.4821L113.981 83.7834L114.049 83.8533L114.139 83.8921L116.958 85.1127L117.185 85.3443L117.542 85.7081L117.899 85.3443L118.195 85.0429L139.45 63.3784L139.746 63.0771L140.089 62.7269L139.746 62.3768L139.45 62.0754L137.378 59.9632L137.082 59.6619ZM112.569 83.5394L113.512 82.578L114.644 81.424L135.9 59.7595L136.195 59.4581L135.838 59.108L136.195 59.4581L136.725 58.9181L137.255 59.4592L137.256 59.4594L137.551 59.7608L139.623 61.8729L139.919 62.1743L140.463 62.7282L139.919 63.2821L139.623 63.5835L118.368 85.248L118.072 85.5493L117.542 86.0897L117.012 85.5493L117.012 85.5493L116.889 85.4233L116.82 85.3535L116.73 85.3147L114.047 84.1522L114.046 84.1521L113.912 84.0938L113.808 83.9876L113.512 83.6863L113.364 83.5354L113.153 83.5364L112.569 83.5394Z" fill="#ED1C24" stroke="#881418"/>
</g>
<defs>
<filter id="filter0_d_1335_3960" x="-2" y="0" width="358" height="135.361" filterUnits="userSpaceOnUse" color-interpolation-filters="sRGB">
<feFlood flood-opacity="0" result="BackgroundImageFix"/>
<feColorMatrix in="SourceAlpha" type="matrix" values="0 0 0 0 0 0 0 0 0 0 0 0 0 0 0 0 0 0 127 0" result="hardAlpha"/>
<feOffset dx="2" dy="5"/>
<feGaussianBlur stdDeviation="2"/>
<feComposite in2="hardAlpha" operator="out"/>
<feColorMatrix type="matrix" values="0 0 0 0 0 0 0 0 0 0 0 0 0 0 0 0 0 0 0.2 0"/>
<feBlend mode="normal" in2="BackgroundImageFix" result="effect1_dropShadow_1335_3960"/>
<feBlend mode="normal" in="SourceGraphic" in2="effect1_dropShadow_1335_3960" result="shape"/>
</filter>
<filter id="filter1_d_1335_3960" x="1" y="36" width="62" height="62" filterUnits="userSpaceOnUse" color-interpolation-filters="sRGB">
<feFlood flood-opacity="0" result="BackgroundImageFix"/>
<feColorMatrix in="SourceAlpha" type="matrix" values="0 0 0 0 0 0 0 0 0 0 0 0 0 0 0 0 0 0 127 0" result="hardAlpha"/>
<feOffset dy="4"/>
<feGaussianBlur stdDeviation="2"/>
<feComposite in2="hardAlpha" operator="out"/>
<feColorMatrix type="matrix" values="0 0 0 0 0 0 0 0 0 0 0 0 0 0 0 0 0 0 0.25 0"/>
<feBlend mode="normal" in2="BackgroundImageFix" result="effect1_dropShadow_1335_3960"/>
<feBlend mode="normal" in="SourceGraphic" in2="effect1_dropShadow_1335_3960" result="shape"/>
</filter>
<linearGradient id="paint0_linear_1335_3960" x1="18.5893" y1="63" x2="367.348" y2="63" gradientUnits="userSpaceOnUse">
<stop stop-color="#ED1C24"/>
<stop offset="1" stop-color="#881418"/>
</linearGradient>
<linearGradient id="paint1_linear_1335_3960" x1="166" y1="31" x2="166" y2="96.5" gradientUnits="userSpaceOnUse">
<stop stop-color="#ED1C24"/>
<stop offset="1" stop-color="#881418"/>
</linearGradient>
</defs>
</svg>
